<?xml version="1.0" standalone="no"?>
<!-- Generator: Adobe Fireworks 10, Export SVG Extension by Aaron Beall (http://fireworks.abeall.com) . Version: 0.6.1  -->
<!DOCTYPE svg PUBLIC "-//W3C//DTD SVG 1.1//EN" "http://www.w3.org/Graphics/SVG/1.1/DTD/svg11.dtd">
<svg id="Untitled-Page%201" viewBox="0 0 100 100" style="background-color:#ffffff00" version="1.1"
	xmlns="http://www.w3.org/2000/svg" xmlns:xlink="http://www.w3.org/1999/xlink" xml:space="preserve"
	x="0px" y="0px" width="100px" height="100px"
>
	<g id="Layer%201">
		<g>
			<path d="M 54.8221 42.2557 L 68.2302 23.0757 L 51.9165 7.866 L 29.1412 16.0579 L 29.8986 37.527 L 54.8221 42.2557 ZM 54.8221 42.2557 L 54.8221 42.2557 Z" fill="#c6c6c6"/>
			<path d="M 46.1437 81.1284 L 58.408 93.9026 L 79.83 84.7527 L 83.3307 65.8249 L 62.0634 63.2072 L 46.1437 81.1284 ZM 46.1437 81.1284 L 46.1437 81.1284 Z" fill="#c6c6c6"/>
			<path d="M 3.1694 67.8981 L 3.438 68.2302 C 10.7342 86.8237 28.8244 100 49.999 100 C 77.6121 100 100 77.61 100 50 C 100 22.387 77.6121 0 49.999 0 C 22.387 0 0 22.387 0 50 C 0 56.1805 1.1274 62.1001 3.183 67.5656 L 3.1694 67.8981 ZM 2.6034 50 C 2.6034 43.6862 3.8563 37.6575 6.1128 32.1407 L 17.9356 17.473 L 21.0047 12.5502 C 29.0262 6.3282 39.0882 2.6035 49.999 2.6035 C 50.2617 2.6035 50.5255 2.6188 50.7882 2.6276 L 56.0743 4.5741 L 67.7357 6.0577 C 75.2009 9.0881 81.7291 13.9549 86.7465 20.1082 L 84.8068 28.5617 L 92.4652 50.1622 L 97.3571 51.4045 C 96.6074 76.8933 75.6646 97.386 49.999 97.386 C 37.2246 97.386 25.626 92.303 17.0875 84.0474 L 26.2906 76.1516 L 17.5125 53.522 L 3.7703 48.7944 L 3.4544 58.8795 C 2.9057 56.0027 2.6034 53.0351 2.6034 50 L 2.6034 50 ZM 2.6034 50 L 2.6034 50 Z" fill="#c6c6c6"/>
		</g>
	</g>
</svg>