<?xml version="1.0" standalone="no"?>
<!-- Generator: Adobe Fireworks 10, Export SVG Extension by Aaron Beall (http://fireworks.abeall.com) . Version: 0.6.1  -->
<!DOCTYPE svg PUBLIC "-//W3C//DTD SVG 1.1//EN" "http://www.w3.org/Graphics/SVG/1.1/DTD/svg11.dtd">
<svg id="Untitled-Page%201" viewBox="0 0 44 44" style="background-color:#ffffff00" version="1.1"
	xmlns="http://www.w3.org/2000/svg" xmlns:xlink="http://www.w3.org/1999/xlink" xml:space="preserve"
	x="0px" y="0px" width="44px" height="44px"
>
	<g id="Layer%201">
		<g>
			<path d="M 24.1218 18.5925 L 30.0213 10.1533 L 22.8433 3.4611 L 12.8221 7.0654 L 13.1554 16.5119 L 24.1218 18.5925 ZM 24.1218 18.5925 L 24.1218 18.5925 Z" fill="#1c3d68"/>
			<path d="M 20.3032 35.6965 L 25.6995 41.3171 L 35.1252 37.2912 L 36.6655 28.963 L 27.3079 27.8112 L 20.3032 35.6965 ZM 20.3032 35.6965 L 20.3032 35.6965 Z" fill="#1c3d68"/>
			<path d="M 1.3945 29.8751 L 1.5127 30.0213 C 4.723 38.2025 12.6827 44 21.9996 44 C 34.1493 44 44 34.1484 44 22 C 44 9.8503 34.1493 0 21.9996 0 C 9.8503 0 0 9.8503 0 22 C 0 24.7194 0.496 27.324 1.4005 29.7289 L 1.3945 29.8751 ZM 1.1455 22 C 1.1455 19.2219 1.6968 16.5693 2.6896 14.1419 L 7.8917 7.6881 L 9.2421 5.5221 C 12.7715 2.7844 17.1988 1.1455 21.9996 1.1455 C 22.1152 1.1455 22.2312 1.1523 22.3468 1.1561 L 24.6727 2.0126 L 29.8037 2.6654 C 33.0884 3.9988 35.9608 6.1401 38.1685 8.8476 L 37.315 12.5671 L 40.6847 22.0714 L 42.8371 22.618 C 42.5073 33.8331 33.2924 42.8499 21.9996 42.8499 C 16.3788 42.8499 11.2755 40.6133 7.5185 36.9809 L 11.5679 33.5067 L 7.7055 23.5497 L 1.6589 21.4695 L 1.52 25.907 C 1.2785 24.6412 1.1455 23.3354 1.1455 22 L 1.1455 22 ZM 1.1455 22 L 1.1455 22 Z" fill="#1c3d68"/>
		</g>
	</g>
</svg>