<?xml version="1.0" standalone="no"?>
<!-- Generator: Adobe Fireworks 10, Export SVG Extension by Aaron Beall (http://fireworks.abeall.com) . Version: 0.6.1  -->
<!DOCTYPE svg PUBLIC "-//W3C//DTD SVG 1.1//EN" "http://www.w3.org/Graphics/SVG/1.1/DTD/svg11.dtd">
<svg id="soccerfeild.fw-Page%201" viewBox="0 0 458 630" style="background-color:#ffffff" version="1.1"
	xmlns="http://www.w3.org/2000/svg" xmlns:xlink="http://www.w3.org/1999/xlink" xml:space="preserve"
	x="0px" y="0px" width="458px" height="630px"
>
	<g id="Layer%201">
		<rect x="0" y="0" width="458" height="630" fill="#5da97b"/>
		<rect x="30.9129" y="97.6002" width="396.3731" height="32.2" fill="#6eb288"/>
		<rect x="30.9129" y="38.7998" width="396.3731" height="29.3999" fill="#6eb288"/>
		<rect x="30.9129" y="159.2002" width="396.3731" height="32.2001" fill="#6eb288"/>
		<rect x="30.9129" y="222.2002" width="396.3731" height="32.2001" fill="#6eb288"/>
		<rect x="30.9129" y="283.8002" width="396.3731" height="32.1998" fill="#6eb288"/>
		<rect x="30.9129" y="345.4003" width="396.3731" height="32.2" fill="#6eb288"/>
		<rect x="30.9129" y="408.4003" width="396.3731" height="32.2" fill="#6eb288"/>
		<rect x="30.9129" y="470" width="396.3731" height="32.2002" fill="#6eb288"/>
		<rect x="30.9129" y="533" width="396.3731" height="32.2002" fill="#6eb288"/>
		<path opacity="0" d="M 0 322 L 458 322 L 458 630 L 0 630 L 0 322 Z" fill="none"/>
		<path d="M 30.9128 45.8 L 427.2859 45.8 L 427.2859 584.8 L 30.9128 584.8 L 30.9128 45.8 ZM 23.9098 38.8 L 23.9098 591.8 L 434.2891 591.8 L 434.2891 38.8 L 23.9098 38.8 Z" fill="#a3ccb2"/>
		<path d="M 113.549 45.8 L 113.549 150.8 L 344.6498 150.8 L 344.6498 45.8 L 337.6468 45.8 L 337.6468 143.8 L 120.552 143.8 L 120.552 45.8 L 113.549 45.8 Z" fill="#a3ccb2"/>
		<path d="M 158.3685 45.8 L 158.3685 101.8 L 299.8303 101.8 L 299.8303 45.8 L 292.8272 45.8 L 292.8272 94.8 L 165.3716 94.8 L 165.3716 45.8 L 158.3685 45.8 Z" fill="#a3ccb2"/>
		<path id="Ellipse" d="M 222.7966 122.1 C 222.7966 118.6206 225.6185 115.8 229.0994 115.8 C 232.5803 115.8 235.4022 118.6206 235.4022 122.1 C 235.4022 125.5793 232.5803 128.4 229.0994 128.4 C 225.6185 128.4 222.7966 125.5793 222.7966 122.1 Z" fill="#a3ccb2"/>
		<path id="Ellipse2" d="M 222.7966 315.3 C 222.7966 311.8206 225.6185 309 229.0994 309 C 232.5803 309 235.4022 311.8206 235.4022 315.3 C 235.4022 318.7794 232.5803 321.6 229.0994 321.6 C 225.6185 321.6 222.7966 318.7794 222.7966 315.3 Z" fill="#a3ccb2"/>
		<path d="M 277.4205 150.8 L 287.2248 150.8 C 287.2248 150.8 264.815 179.0625 229.2745 179.0625 C 191.0203 179.0625 170.974 150.8 170.974 150.8 L 180.7783 150.8 C 180.7783 150.8 198.8112 171.975 229.2745 171.975 C 257.812 171.975 277.4205 150.8 277.4205 150.8 Z" fill="#a3ccb2"/>
		<path d="M 344.6498 584.8 L 344.6498 480.0068 L 113.549 480.0068 L 113.549 584.8 L 120.552 584.8 L 120.552 486.993 L 337.6468 486.993 L 337.6468 584.8 L 344.6498 584.8 Z" fill="#a3ccb2"/>
		<path d="M 299.8303 584.8 L 299.8303 528.9104 L 158.3685 528.9104 L 158.3685 584.8 L 165.3716 584.8 L 165.3716 535.8966 L 292.8272 535.8966 L 292.8272 584.8 L 299.8303 584.8 Z" fill="#a3ccb2"/>
		<path id="Ellipse3" d="M 235.4022 508.6503 C 235.4022 512.1229 232.5803 514.9379 229.0994 514.9379 C 225.6185 514.9379 222.7966 512.1229 222.7966 508.6503 C 222.7966 505.1777 225.6185 502.3627 229.0994 502.3627 C 232.5803 502.3627 235.4022 505.1777 235.4022 508.6503 Z" fill="#a3ccb2"/>
		<path d="M 180.7783 480.0068 L 170.974 480.0068 C 170.974 480.0068 193.3838 451.8 228.9243 451.8 C 267.1785 451.8 287.2248 480.0068 287.2248 480.0068 L 277.4205 480.0068 C 277.4205 480.0068 259.3876 458.8735 228.9243 458.8735 C 200.3868 458.8735 180.7783 480.0068 180.7783 480.0068 Z" fill="#a3ccb2"/>
		<path d="M 30.9128 311.8 L 427.2859 311.8 L 427.2859 318.8 L 30.9128 318.8 L 30.9128 311.8 Z" fill="#a3ccb2"/>
		<path d="M 164.6713 315.3 C 164.6713 279.7324 193.5162 250.9 229.0994 250.9 C 264.6825 250.9 293.5275 279.7324 293.5275 315.3 C 293.5275 350.8676 264.6825 379.7 229.0994 379.7 C 193.5162 379.7 164.6713 350.8676 164.6713 315.3 ZM 158.3685 315.3 C 158.3685 354.347 190.0353 386 229.0994 386 C 268.1635 386 299.8303 354.347 299.8303 315.3 C 299.8303 276.2529 268.1635 244.6 229.0994 244.6 C 190.0353 244.6 158.3685 276.2529 158.3685 315.3 Z" fill="#a3ccb2"/>
		<path d="M 427.2859 572.2 L 427.2859 565.2 C 427.2859 565.2 407.6774 565.2 407.6774 584.8 C 407.6774 584.8875 414.6804 584.8 414.6804 584.8 C 414.6804 584.8 413.2798 572.2 427.2859 572.2 Z" fill="#a3ccb2"/>
		<path d="M 43.5323 584.8 L 50.5214 584.8 C 50.5214 584.8 50.5214 565.2 30.9518 565.2 C 30.8644 565.2 30.9518 572.2 30.9518 572.2 C 30.9518 572.2 43.5323 570.8 43.5323 584.8 Z" fill="#a3ccb2"/>
		<path d="M 30.9128 58.4138 L 30.9128 65.4 C 30.9128 65.4 50.5214 65.4 50.5214 45.839 C 50.5214 45.7517 43.5183 45.839 43.5183 45.839 C 43.5183 45.839 44.9189 58.4138 30.9128 58.4138 Z" fill="#a3ccb2"/>
		<path d="M 414.6665 45.839 L 407.6775 45.839 C 407.6775 45.839 407.6775 65.4 427.2471 65.4 C 427.3345 65.4 427.2471 58.4138 427.2471 58.4138 C 427.2471 58.4138 414.6665 59.811 414.6665 45.839 Z" fill="#a3ccb2"/>
		<g>
			<path id="Line" d="M 258.223 612.2378 L 258.223 592.4817 " stroke="#dddddd" stroke-width="1" fill="none"/>
			<path id="Line2" d="M 256.2524 611.9086 L 256.2524 592.4817 " stroke="#dddddd" stroke-width="1" fill="none"/>
			<path id="Line3" d="M 254.2819 611.9086 L 254.2819 592.4817 " stroke="#dddddd" stroke-width="1" fill="none"/>
			<path id="Line4" d="M 252.3113 611.5792 L 252.3113 592.4817 " stroke="#dddddd" stroke-width="1" fill="none"/>
			<path id="Line5" d="M 250.3407 611.5792 L 250.3407 592.4817 " stroke="#dddddd" stroke-width="1" fill="none"/>
			<path id="Line6" d="M 248.3701 611.25 L 248.3701 592.4817 " stroke="#dddddd" stroke-width="1" fill="none"/>
			<path id="Line7" d="M 246.3995 611.25 L 246.3995 592.4817 " stroke="#dddddd" stroke-width="1" fill="none"/>
			<path id="Line8" d="M 244.4289 610.9208 L 244.4289 592.4817 " stroke="#dddddd" stroke-width="1" fill="none"/>
			<path id="Line9" d="M 242.4583 610.9208 L 242.4583 592.4817 " stroke="#dddddd" stroke-width="1" fill="none"/>
			<path id="Line10" d="M 240.4877 610.5914 L 240.4877 592.4817 " stroke="#dddddd" stroke-width="1" fill="none"/>
			<path id="Line11" d="M 238.5172 610.5914 L 238.5172 592.4817 " stroke="#dddddd" stroke-width="1" fill="none"/>
			<path id="Line12" d="M 236.5466 610.5914 L 236.5466 592.4817 " stroke="#dddddd" stroke-width="1" fill="none"/>
			<path id="Line13" d="M 234.576 610.5914 L 234.576 592.4817 " stroke="#dddddd" stroke-width="1" fill="none"/>
			<path id="Line14" d="M 232.6054 610.5914 L 232.6054 592.4817 " stroke="#dddddd" stroke-width="1" fill="none"/>
			<path id="Line15" d="M 230.6348 610.5914 L 230.6348 592.4817 " stroke="#dddddd" stroke-width="1" fill="none"/>
			<path id="Line16" d="M 228.6642 610.5914 L 228.6642 592.4817 " stroke="#dddddd" stroke-width="1" fill="none"/>
			<path id="Line17" d="M 226.6936 610.5914 L 226.6936 592.4817 " stroke="#dddddd" stroke-width="1" fill="none"/>
			<path id="Line18" d="M 224.723 610.5914 L 224.723 592.4817 " stroke="#dddddd" stroke-width="1" fill="none"/>
			<path id="Line19" d="M 222.7524 610.5914 L 222.7524 592.4817 " stroke="#dddddd" stroke-width="1" fill="none"/>
			<path id="Line20" d="M 220.7819 610.5914 L 220.7819 592.4817 " stroke="#dddddd" stroke-width="1" fill="none"/>
			<path id="Line21" d="M 218.8113 610.9208 L 218.8113 592.4817 " stroke="#dddddd" stroke-width="1" fill="none"/>
			<path id="Line22" d="M 216.8407 610.9208 L 216.8407 592.4817 " stroke="#dddddd" stroke-width="1" fill="none"/>
			<path id="Line23" d="M 214.8701 611.25 L 214.8701 592.4817 " stroke="#dddddd" stroke-width="1" fill="none"/>
			<path id="Line24" d="M 212.8995 611.25 L 212.8995 592.4817 " stroke="#dddddd" stroke-width="1" fill="none"/>
			<path id="Line25" d="M 210.9289 611.5792 L 210.9289 592.4817 " stroke="#dddddd" stroke-width="1" fill="none"/>
			<path id="Line26" d="M 208.9583 611.5792 L 208.9583 592.4817 " stroke="#dddddd" stroke-width="1" fill="none"/>
			<path id="Line27" d="M 206.9877 611.9086 L 206.9877 592.4817 " stroke="#dddddd" stroke-width="1" fill="none"/>
			<path id="Line28" d="M 205.0172 611.9086 L 205.0172 592.4817 " stroke="#dddddd" stroke-width="1" fill="none"/>
			<path id="Line29" d="M 203.0466 612.2378 L 203.0466 592.4817 " stroke="#dddddd" stroke-width="1" fill="none"/>
			<path id="Line30" d="M 201.076 612.2378 L 201.076 592.4817 " stroke="#dddddd" stroke-width="1" fill="none"/>
			<rect x="198.7222" y="590.8905" width="60.103" height="1.6464" fill="#dddddd"/>
			<path d="M 258.223 610.5914 L 199.1054 610.5914 " stroke="#dddddd" stroke-width="1" fill="none"/>
			<path d="M 258.223 608.9451 L 199.1054 608.9451 " stroke="#dddddd" stroke-width="1" fill="none"/>
			<path d="M 258.223 607.2988 L 199.1054 607.2988 " stroke="#dddddd" stroke-width="1" fill="none"/>
			<path d="M 258.223 604.0061 L 199.1054 604.0061 " stroke="#dddddd" stroke-width="1" fill="none"/>
			<path d="M 258.223 605.6525 L 199.1054 605.6525 " stroke="#dddddd" stroke-width="1" fill="none"/>
			<path d="M 258.223 602.3597 L 199.1054 602.3597 " stroke="#dddddd" stroke-width="1" fill="none"/>
			<path d="M 258.223 600.7134 L 199.1054 600.7134 " stroke="#dddddd" stroke-width="1" fill="none"/>
			<path d="M 258.223 599.067 L 199.1054 599.067 " stroke="#dddddd" stroke-width="1" fill="none"/>
			<path d="M 258.223 595.7744 L 199.1054 595.7744 " stroke="#dddddd" stroke-width="1" fill="none"/>
			<path d="M 258.223 594.1281 L 199.1054 594.1281 " stroke="#dddddd" stroke-width="1" fill="none"/>
			<path d="M 258.223 597.4208 L 199.1054 597.4208 " stroke="#dddddd" stroke-width="1" fill="none"/>
			<path id="Ellipse4" d="M 262 617.1769 C 262 617.6315 261.6324 618 261.1789 618 C 260.7255 618 260.3578 617.6315 260.3578 617.1769 C 260.3578 616.7222 260.7255 616.3536 261.1789 616.3536 C 261.6324 616.3536 262 616.7222 262 617.1769 Z" fill="#dddddd"/>
			<path id="Ellipse5" d="M 196.6422 617.1769 C 196.6422 617.6315 196.2745 618 195.8211 618 C 195.3676 618 195 617.6315 195 617.1769 C 195 616.7222 195.3676 616.3536 195.8211 616.3536 C 196.2745 616.3536 196.6422 616.7222 196.6422 617.1769 Z" fill="#dddddd"/>
			<path id="Line31" d="M 195.8211 617.1769 L 199.1875 612.1555 " stroke="#dddddd" stroke-width="1" fill="none"/>
			<path d="M 261.1789 617.1769 L 258.223 612.2378 L 228.7463 610.5092 L 199.1054 612.2378 L 199.1054 592.4817 " stroke="#dddddd" stroke-width="1" fill="none"/>
		</g>
		<g>
			<path id="Line32" d="M 200.777 17.7389 L 200.777 37.4152 " stroke="#dddddd" stroke-width="1" fill="none"/>
			<path id="Line33" d="M 202.7476 18.0668 L 202.7476 37.4152 " stroke="#dddddd" stroke-width="1" fill="none"/>
			<path id="Line34" d="M 204.7181 18.0668 L 204.7181 37.4152 " stroke="#dddddd" stroke-width="1" fill="none"/>
			<path id="Line35" d="M 206.6887 18.3948 L 206.6887 37.4152 " stroke="#dddddd" stroke-width="1" fill="none"/>
			<path id="Line36" d="M 208.6593 18.3948 L 208.6593 37.4152 " stroke="#dddddd" stroke-width="1" fill="none"/>
			<path id="Line37" d="M 210.6299 18.7227 L 210.6299 37.4152 " stroke="#dddddd" stroke-width="1" fill="none"/>
			<path id="Line38" d="M 212.6005 18.7227 L 212.6005 37.4152 " stroke="#dddddd" stroke-width="1" fill="none"/>
			<path id="Line39" d="M 214.5711 19.0506 L 214.5711 37.4152 " stroke="#dddddd" stroke-width="1" fill="none"/>
			<path id="Line40" d="M 216.5417 19.0506 L 216.5417 37.4152 " stroke="#dddddd" stroke-width="1" fill="none"/>
			<path id="Line41" d="M 218.5123 19.3786 L 218.5123 37.4152 " stroke="#dddddd" stroke-width="1" fill="none"/>
			<path id="Line42" d="M 220.4828 19.3786 L 220.4828 37.4152 " stroke="#dddddd" stroke-width="1" fill="none"/>
			<path id="Line43" d="M 222.4534 19.3786 L 222.4534 37.4152 " stroke="#dddddd" stroke-width="1" fill="none"/>
			<path id="Line44" d="M 224.424 19.3786 L 224.424 37.4152 " stroke="#dddddd" stroke-width="1" fill="none"/>
			<path id="Line45" d="M 226.3946 19.3786 L 226.3946 37.4152 " stroke="#dddddd" stroke-width="1" fill="none"/>
			<path id="Line46" d="M 228.3652 19.3786 L 228.3652 37.4152 " stroke="#dddddd" stroke-width="1" fill="none"/>
			<path id="Line47" d="M 230.3358 19.3786 L 230.3358 37.4152 " stroke="#dddddd" stroke-width="1" fill="none"/>
			<path id="Line48" d="M 232.3064 19.3786 L 232.3064 37.4152 " stroke="#dddddd" stroke-width="1" fill="none"/>
			<path id="Line49" d="M 234.277 19.3786 L 234.277 37.4152 " stroke="#dddddd" stroke-width="1" fill="none"/>
			<path id="Line50" d="M 236.2476 19.3786 L 236.2476 37.4152 " stroke="#dddddd" stroke-width="1" fill="none"/>
			<path id="Line51" d="M 238.2181 19.3786 L 238.2181 37.4152 " stroke="#dddddd" stroke-width="1" fill="none"/>
			<path id="Line52" d="M 240.1887 19.0506 L 240.1887 37.4152 " stroke="#dddddd" stroke-width="1" fill="none"/>
			<path id="Line53" d="M 242.1593 19.0506 L 242.1593 37.4152 " stroke="#dddddd" stroke-width="1" fill="none"/>
			<path id="Line54" d="M 244.1299 18.7227 L 244.1299 37.4152 " stroke="#dddddd" stroke-width="1" fill="none"/>
			<path id="Line55" d="M 246.1005 18.7227 L 246.1005 37.4152 " stroke="#dddddd" stroke-width="1" fill="none"/>
			<path id="Line56" d="M 248.0711 18.3948 L 248.0711 37.4152 " stroke="#dddddd" stroke-width="1" fill="none"/>
			<path id="Line57" d="M 250.0417 18.3948 L 250.0417 37.4152 " stroke="#dddddd" stroke-width="1" fill="none"/>
			<path id="Line58" d="M 252.0123 18.0668 L 252.0123 37.4152 " stroke="#dddddd" stroke-width="1" fill="none"/>
			<path id="Line59" d="M 253.9828 18.0668 L 253.9828 37.4152 " stroke="#dddddd" stroke-width="1" fill="none"/>
			<path id="Line60" d="M 255.9534 17.7389 L 255.9534 37.4152 " stroke="#dddddd" stroke-width="1" fill="none"/>
			<path id="Line61" d="M 257.924 17.7389 L 257.924 37.4152 " stroke="#dddddd" stroke-width="1" fill="none"/>
			<rect x="200.1748" y="37.3603" width="60.1029" height="1.6397" fill="#dddddd"/>
			<path d="M 200.777 19.3786 L 259.8946 19.3786 " stroke="#dddddd" stroke-width="1" fill="none"/>
			<path d="M 200.777 21.0184 L 259.8946 21.0184 " stroke="#dddddd" stroke-width="1" fill="none"/>
			<path d="M 200.777 22.6579 L 259.8946 22.6579 " stroke="#dddddd" stroke-width="1" fill="none"/>
			<path d="M 200.777 25.9374 L 259.8946 25.9374 " stroke="#dddddd" stroke-width="1" fill="none"/>
			<path d="M 200.777 24.2977 L 259.8946 24.2977 " stroke="#dddddd" stroke-width="1" fill="none"/>
			<path d="M 200.777 27.5771 L 259.8946 27.5771 " stroke="#dddddd" stroke-width="1" fill="none"/>
			<path d="M 200.777 29.2168 L 259.8946 29.2168 " stroke="#dddddd" stroke-width="1" fill="none"/>
			<path d="M 200.777 30.8565 L 259.8946 30.8565 " stroke="#dddddd" stroke-width="1" fill="none"/>
			<path d="M 200.777 34.1358 L 259.8946 34.1358 " stroke="#dddddd" stroke-width="1" fill="none"/>
			<path d="M 200.777 35.7755 L 259.8946 35.7755 " stroke="#dddddd" stroke-width="1" fill="none"/>
			<path d="M 200.777 32.4961 L 259.8946 32.4961 " stroke="#dddddd" stroke-width="1" fill="none"/>
			<path id="Ellipse6" d="M 197 12.8198 C 197 12.367 197.3676 12 197.8211 12 C 198.2745 12 198.6422 12.367 198.6422 12.8198 C 198.6422 13.2727 198.2745 13.6397 197.8211 13.6397 C 197.3676 13.6397 197 13.2727 197 12.8198 Z" fill="#dddddd"/>
			<path id="Ellipse7" d="M 262.3578 12.8198 C 262.3578 12.367 262.7255 12 263.1789 12 C 263.6324 12 264 12.367 264 12.8198 C 264 13.2727 263.6324 13.6397 263.1789 13.6397 C 262.7255 13.6397 262.3578 13.2727 262.3578 12.8198 Z" fill="#dddddd"/>
			<path id="Line62" d="M 263.1789 12.8198 L 259.8125 17.8209 " stroke="#dddddd" stroke-width="1" fill="none"/>
			<path d="M 197.8211 12.8198 L 200.777 17.7389 L 230.2537 19.4606 L 259.8946 17.7389 L 259.8946 37.4152 " stroke="#dddddd" stroke-width="1" fill="none"/>
		</g>
	</g>
</svg>