<?xml version="1.0" standalone="no"?>
<!-- Generator: Adobe Fireworks 10, Export SVG Extension by Aaron Beall (http://fireworks.abeall.com) . Version: 0.6.1  -->
<!DOCTYPE svg PUBLIC "-//W3C//DTD SVG 1.1//EN" "http://www.w3.org/Graphics/SVG/1.1/DTD/svg11.dtd">
<svg id="Untitled-Page%201" viewBox="0 0 160 80" style="background-color:#ffffff00" version="1.1"
	xmlns="http://www.w3.org/2000/svg" xmlns:xlink="http://www.w3.org/1999/xlink" xml:space="preserve"
	x="0px" y="0px" width="160px" height="80px"
>
	<defs>
		<mask id="mask1">
			<rect x="0" y="0" width="160" height="80" fill="#b4b4b4"/>
		</mask>
	</defs>
	<g id="Layer%201">
		<g mask="url(#mask1)">
			<g>
				<rect x="0" y="10" width="11" height="70" fill="#b4b4b4"/>
				<rect x="149" y="10" width="11" height="70" fill="#b4b4b4"/>
				<rect x="0" y="0" width="160" height="10.7144" fill="#b4b4b4"/>
			</g>
			<g>
				<g>
					<path d="M 10.8008 54.0967 L 12.23 53.3789 L 10.7891 50.5146 L 12.7969 46.5234 L 16.5981 46.5234 L 18.6211 50.5469 L 17.1992 53.3789 L 18.6289 54.0967 L 18.6328 54.082 L 18.6641 54.0967 L 19.9922 51.4531 L 23.8281 51.4531 L 25.1558 54.0967 L 26.5859 53.3789 L 25.1802 50.5859 L 27.2769 46.4141 L 31.043 46.4141 L 33.1406 50.5859 L 31.7339 53.3789 L 33.1641 54.0967 L 34.4961 51.4531 L 38.3281 51.4531 L 39.6563 54.0967 L 41.0859 53.3789 L 39.6797 50.5859 L 41.7227 46.5234 L 45.5391 46.5234 L 47.5781 50.5859 L 45.5898 54.5391 L 47.4258 54.5391 L 47.6484 54.0967 L 48.3125 52.7773 L 48.9766 51.4531 L 52.7656 51.4531 L 54.0977 54.0967 L 55.5273 53.3789 L 54.1211 50.5859 L 56.5664 45.7256 L 54.1289 40.8789 L 56.5664 36.0352 L 54.1563 31.2422 L 56.5664 26.4531 L 54.1563 21.6602 L 56.5664 16.8672 L 54.1289 12.0229 L 55.0664 10.1602 L 53.6367 9.4409 L 52.7695 11.168 L 48.9336 11.168 L 48.0664 9.4409 L 48.0547 9.4453 L 48.0547 9.4409 L 46.625 10.1602 L 47.5352 11.9692 L 45.5273 15.9609 L 41.6914 15.9609 L 39.7031 12 L 40.6289 10.1602 L 41.1797 9 L 39.3867 9 L 39.168 9.4409 L 38.5547 10.6602 L 38.2969 11.168 L 34.4961 11.168 L 33.625 9.4409 L 33.6016 9.4531 L 33.5977 9.4409 L 32.168 10.1602 L 33.0781 11.9692 L 31.0698 15.9609 L 27.2378 15.9609 L 25.23 11.9692 L 26.1411 10.1602 L 24.7109 9.4409 L 24.707 9.4453 L 24.6992 9.4409 L 23.8281 11.168 L 20.0269 11.168 L 19.1602 9.4409 L 18.9063 9 L 17.1128 9 L 17.6992 10.1602 L 17.8979 10.5581 L 18.6089 11.9692 L 17.9409 13.3013 L 16.6021 15.9609 L 12.7969 15.9609 L 10.793 11.9692 L 11.7031 10.1602 L 10.27 9.4409 L 9 11.9692 L 11.438 16.812 L 9 21.6602 L 11.4102 26.4531 L 9 31.2422 L 11.4102 36.0352 L 9 40.8242 L 11.438 45.6719 L 9 50.5146 L 10.8008 54.0967 ZM 23.8281 49.7148 L 20.0269 49.7148 L 18.0039 45.6914 L 19.9961 41.7305 L 23.8281 41.7305 L 25.8359 45.7217 L 23.8281 49.7148 ZM 39.7188 31.2422 L 41.7266 27.25 L 45.5273 27.25 L 47.5352 31.2422 L 45.5273 35.2344 L 41.7266 35.2344 L 41.2461 34.2813 L 39.7188 31.2422 ZM 40.3203 36.0664 L 38.3281 40.0234 L 34.4961 40.0234 L 32.4878 36.0313 L 34.4961 32.043 L 38.2969 32.043 L 40.3203 36.0664 ZM 39.6367 27.7813 L 38.2969 30.4409 L 34.4961 30.4409 L 32.4878 26.4492 L 34.4961 22.4609 L 38.2969 22.4609 L 39.6367 25.1211 L 40.3047 26.4492 L 39.6367 27.7813 ZM 33.0781 31.2422 L 31.0698 35.2344 L 27.2378 35.2344 L 25.23 31.2422 L 27.2378 27.25 L 31.0698 27.25 L 33.0781 31.2422 ZM 23.8281 30.4409 L 20.0269 30.4409 L 19.5469 29.4883 L 18.02 26.4492 L 20.0269 22.4609 L 23.8281 22.4609 L 25.8359 26.4492 L 23.8281 30.4409 ZM 20.0269 32.043 L 23.8281 32.043 L 25.8359 36.0313 L 23.8281 40.0234 L 20.0269 40.0234 L 19.5469 39.0703 L 18.02 36.0313 L 20.0269 32.043 ZM 27.2378 44.8164 L 25.23 40.8242 L 27.2378 36.832 L 31.0698 36.832 L 33.0781 40.8242 L 31.0698 44.8164 L 27.2378 44.8164 ZM 38.3281 49.7148 L 34.4961 49.7148 L 32.4878 45.7217 L 34.4961 41.7305 L 38.2969 41.7305 L 40.3203 45.7539 L 38.3281 49.7148 ZM 45.5273 44.9219 L 41.7266 44.9219 L 39.7031 40.8984 L 41.6914 36.9414 L 45.5273 36.9414 L 47.5352 40.9326 L 45.5273 44.9219 ZM 54.7773 45.7217 L 52.7695 49.7148 L 49.0469 49.7148 L 46.9844 45.6094 L 48.9336 41.7344 L 52.7695 41.7344 L 54.7773 45.7217 ZM 54.7773 36.0313 L 52.7695 40.0234 L 48.9336 40.0234 L 46.9258 36.0313 L 48.9336 32.043 L 52.7695 32.043 L 54.7773 36.0313 ZM 54.7773 26.4531 L 52.7695 30.4409 L 48.9336 30.4409 L 46.9258 26.4531 L 48.9336 22.4609 L 52.7695 22.4609 L 54.7773 26.4531 ZM 48.9336 12.8789 L 52.7695 12.8789 L 54.7773 16.8672 L 52.7695 20.8589 L 48.9336 20.8589 L 46.9258 16.8672 L 48.9336 12.8789 ZM 41.7266 17.668 L 45.5273 17.668 L 47.5352 21.6602 L 45.5273 25.6519 L 41.7266 25.6519 L 41.2461 24.6992 L 39.7188 21.6602 L 41.7266 17.668 ZM 34.4961 12.8789 L 38.3281 12.8789 L 40.3203 16.8359 L 38.2969 20.8589 L 34.4961 20.8589 L 32.4878 16.8672 L 34.4961 12.8789 ZM 31.0698 17.668 L 33.0781 21.6602 L 31.0698 25.6519 L 27.2378 25.6519 L 25.23 21.6602 L 27.2378 17.668 L 31.0698 17.668 ZM 19.3052 14.207 L 20.0269 12.769 L 23.8281 12.769 L 25.8359 16.7622 L 23.8281 20.75 L 19.9961 20.75 L 18.0039 16.793 L 19.3052 14.207 ZM 10.793 21.6602 L 12.7969 17.668 L 16.6328 17.668 L 18.625 21.6289 L 16.6021 25.6519 L 12.7969 25.6519 L 10.793 21.6602 ZM 10.793 31.2422 L 12.7969 27.25 L 16.6021 27.25 L 17.938 29.9102 L 18.605 31.2422 L 17.938 32.5703 L 16.6021 35.2344 L 12.7969 35.2344 L 10.793 31.2422 ZM 10.793 40.8242 L 12.7969 36.832 L 16.6021 36.832 L 18.625 40.8555 L 16.6328 44.8125 L 12.7969 44.8125 L 10.793 40.8242 ZM 10.793 40.8242 L 10.793 40.8242 Z" fill="#b4b4b4"/>
				</g>
				<g>
					<path d="M 46.8008 49.0967 L 48.23 48.3789 L 46.7891 45.5146 L 48.7969 41.5234 L 52.5981 41.5234 L 54.6211 45.5469 L 53.1992 48.3789 L 54.6289 49.0967 L 54.6328 49.082 L 54.6641 49.0967 L 55.9922 46.4531 L 59.8281 46.4531 L 61.1558 49.0967 L 62.5859 48.3789 L 61.1802 45.5859 L 63.2769 41.4141 L 67.043 41.4141 L 69.1406 45.5859 L 67.7339 48.3789 L 69.1641 49.0967 L 70.4961 46.4531 L 74.3281 46.4531 L 75.6563 49.0967 L 77.0859 48.3789 L 75.6797 45.5859 L 77.7227 41.5234 L 81.5391 41.5234 L 83.5781 45.5859 L 81.5898 49.5391 L 83.4258 49.5391 L 83.6484 49.0967 L 84.3125 47.7773 L 84.9766 46.4531 L 88.7656 46.4531 L 90.0977 49.0967 L 91.5273 48.3789 L 90.1211 45.5859 L 92.5664 40.7256 L 90.1289 35.8789 L 92.5664 31.0352 L 90.1563 26.2422 L 92.5664 21.4531 L 90.1563 16.6602 L 92.5664 11.8672 L 90.1289 7.0229 L 91.0664 5.1602 L 89.6367 4.4409 L 88.7695 6.168 L 84.9336 6.168 L 84.0664 4.4409 L 84.0547 4.4453 L 84.0547 4.4409 L 82.625 5.1602 L 83.5352 6.9692 L 81.5273 10.9609 L 77.6914 10.9609 L 75.7031 7 L 76.6289 5.1602 L 77.1797 4 L 75.3867 4 L 75.168 4.4409 L 74.5547 5.6602 L 74.2969 6.168 L 70.4961 6.168 L 69.625 4.4409 L 69.6016 4.4531 L 69.5977 4.4409 L 68.168 5.1602 L 69.0781 6.9692 L 67.0698 10.9609 L 63.2378 10.9609 L 61.23 6.9692 L 62.1411 5.1602 L 60.7109 4.4409 L 60.707 4.4453 L 60.6992 4.4409 L 59.8281 6.168 L 56.0269 6.168 L 55.1602 4.4409 L 54.9063 4 L 53.1128 4 L 53.6992 5.1602 L 53.8979 5.5581 L 54.6089 6.9692 L 53.9409 8.3013 L 52.6021 10.9609 L 48.7969 10.9609 L 46.793 6.9692 L 47.7031 5.1602 L 46.27 4.4409 L 45 6.9692 L 47.438 11.812 L 45 16.6602 L 47.4102 21.4531 L 45 26.2422 L 47.4102 31.0352 L 45 35.8242 L 47.438 40.6719 L 45 45.5146 L 46.8008 49.0967 ZM 59.8281 44.7148 L 56.0269 44.7148 L 54.0039 40.6914 L 55.9961 36.7305 L 59.8281 36.7305 L 61.8359 40.7217 L 59.8281 44.7148 ZM 75.7188 26.2422 L 77.7266 22.25 L 81.5273 22.25 L 83.5352 26.2422 L 81.5273 30.2344 L 77.7266 30.2344 L 77.2461 29.2813 L 75.7188 26.2422 ZM 76.3203 31.0664 L 74.3281 35.0234 L 70.4961 35.0234 L 68.4878 31.0313 L 70.4961 27.043 L 74.2969 27.043 L 76.3203 31.0664 ZM 75.6367 22.7813 L 74.2969 25.4409 L 70.4961 25.4409 L 68.4878 21.4492 L 70.4961 17.4609 L 74.2969 17.4609 L 75.6367 20.1211 L 76.3047 21.4492 L 75.6367 22.7813 ZM 69.0781 26.2422 L 67.0698 30.2344 L 63.2378 30.2344 L 61.23 26.2422 L 63.2378 22.25 L 67.0698 22.25 L 69.0781 26.2422 ZM 59.8281 25.4409 L 56.0269 25.4409 L 55.5469 24.4883 L 54.02 21.4492 L 56.0269 17.4609 L 59.8281 17.4609 L 61.8359 21.4492 L 59.8281 25.4409 ZM 56.0269 27.043 L 59.8281 27.043 L 61.8359 31.0313 L 59.8281 35.0234 L 56.0269 35.0234 L 55.5469 34.0703 L 54.02 31.0313 L 56.0269 27.043 ZM 63.2378 39.8164 L 61.23 35.8242 L 63.2378 31.832 L 67.0698 31.832 L 69.0781 35.8242 L 67.0698 39.8164 L 63.2378 39.8164 ZM 74.3281 44.7148 L 70.4961 44.7148 L 68.4878 40.7217 L 70.4961 36.7305 L 74.2969 36.7305 L 76.3203 40.7539 L 74.3281 44.7148 ZM 81.5273 39.9219 L 77.7266 39.9219 L 75.7031 35.8984 L 77.6914 31.9414 L 81.5273 31.9414 L 83.5352 35.9326 L 81.5273 39.9219 ZM 90.7773 40.7217 L 88.7695 44.7148 L 85.0469 44.7148 L 82.9844 40.6094 L 84.9336 36.7344 L 88.7695 36.7344 L 90.7773 40.7217 ZM 90.7773 31.0313 L 88.7695 35.0234 L 84.9336 35.0234 L 82.9258 31.0313 L 84.9336 27.043 L 88.7695 27.043 L 90.7773 31.0313 ZM 90.7773 21.4531 L 88.7695 25.4409 L 84.9336 25.4409 L 82.9258 21.4531 L 84.9336 17.4609 L 88.7695 17.4609 L 90.7773 21.4531 ZM 84.9336 7.8789 L 88.7695 7.8789 L 90.7773 11.8672 L 88.7695 15.8589 L 84.9336 15.8589 L 82.9258 11.8672 L 84.9336 7.8789 ZM 77.7266 12.668 L 81.5273 12.668 L 83.5352 16.6602 L 81.5273 20.6519 L 77.7266 20.6519 L 77.2461 19.6992 L 75.7188 16.6602 L 77.7266 12.668 ZM 70.4961 7.8789 L 74.3281 7.8789 L 76.3203 11.8359 L 74.2969 15.8589 L 70.4961 15.8589 L 68.4878 11.8672 L 70.4961 7.8789 ZM 67.0698 12.668 L 69.0781 16.6602 L 67.0698 20.6519 L 63.2378 20.6519 L 61.23 16.6602 L 63.2378 12.668 L 67.0698 12.668 ZM 55.3052 9.207 L 56.0269 7.769 L 59.8281 7.769 L 61.8359 11.7622 L 59.8281 15.75 L 55.9961 15.75 L 54.0039 11.793 L 55.3052 9.207 ZM 46.793 16.6602 L 48.7969 12.668 L 52.6328 12.668 L 54.625 16.6289 L 52.6021 20.6519 L 48.7969 20.6519 L 46.793 16.6602 ZM 46.793 26.2422 L 48.7969 22.25 L 52.6021 22.25 L 53.938 24.9102 L 54.605 26.2422 L 53.938 27.5703 L 52.6021 30.2344 L 48.7969 30.2344 L 46.793 26.2422 ZM 46.793 35.8242 L 48.7969 31.832 L 52.6021 31.832 L 54.625 35.8555 L 52.6328 39.8125 L 48.7969 39.8125 L 46.793 35.8242 ZM 46.793 35.8242 L 46.793 35.8242 Z" fill="#b4b4b4"/>
				</g>
				<g>
					<path d="M 10.8008 92.0967 L 12.23 91.3789 L 10.7891 88.5146 L 12.7969 84.5234 L 16.5981 84.5234 L 18.6211 88.5469 L 17.1992 91.3789 L 18.6289 92.0967 L 18.6328 92.082 L 18.6641 92.0967 L 19.9922 89.4531 L 23.8281 89.4531 L 25.1558 92.0967 L 26.5859 91.3789 L 25.1802 88.5859 L 27.2769 84.4141 L 31.043 84.4141 L 33.1406 88.5859 L 31.7339 91.3789 L 33.1641 92.0967 L 34.4961 89.4531 L 38.3281 89.4531 L 39.6563 92.0967 L 41.0859 91.3789 L 39.6797 88.5859 L 41.7227 84.5234 L 45.5391 84.5234 L 47.5781 88.5859 L 45.5898 92.5391 L 47.4258 92.5391 L 47.6484 92.0967 L 48.3125 90.7773 L 48.9766 89.4531 L 52.7656 89.4531 L 54.0977 92.0967 L 55.5273 91.3789 L 54.1211 88.5859 L 56.5664 83.7256 L 54.1289 78.8789 L 56.5664 74.0352 L 54.1563 69.2422 L 56.5664 64.4531 L 54.1563 59.6602 L 56.5664 54.8672 L 54.1289 50.0229 L 55.0664 48.1602 L 53.6367 47.4409 L 52.7695 49.168 L 48.9336 49.168 L 48.0664 47.4409 L 48.0547 47.4453 L 48.0547 47.4409 L 46.625 48.1602 L 47.5352 49.9692 L 45.5273 53.9609 L 41.6914 53.9609 L 39.7031 50 L 40.6289 48.1602 L 41.1797 47 L 39.3867 47 L 39.168 47.4409 L 38.5547 48.6602 L 38.2969 49.168 L 34.4961 49.168 L 33.625 47.4409 L 33.6016 47.4531 L 33.5977 47.4409 L 32.168 48.1602 L 33.0781 49.9692 L 31.0698 53.9609 L 27.2378 53.9609 L 25.23 49.9692 L 26.1411 48.1602 L 24.7109 47.4409 L 24.707 47.4453 L 24.6992 47.4409 L 23.8281 49.168 L 20.0269 49.168 L 19.1602 47.4409 L 18.9063 47 L 17.1128 47 L 17.6992 48.1602 L 17.8979 48.5581 L 18.6089 49.9692 L 17.9409 51.3013 L 16.6021 53.9609 L 12.7969 53.9609 L 10.793 49.9692 L 11.7031 48.1602 L 10.27 47.4409 L 9 49.9692 L 11.438 54.812 L 9 59.6602 L 11.4102 64.4531 L 9 69.2422 L 11.4102 74.0352 L 9 78.8242 L 11.438 83.6719 L 9 88.5146 L 10.8008 92.0967 ZM 23.8281 87.7148 L 20.0269 87.7148 L 18.0039 83.6914 L 19.9961 79.7305 L 23.8281 79.7305 L 25.8359 83.7217 L 23.8281 87.7148 ZM 39.7188 69.2422 L 41.7266 65.25 L 45.5273 65.25 L 47.5352 69.2422 L 45.5273 73.2344 L 41.7266 73.2344 L 41.2461 72.2813 L 39.7188 69.2422 ZM 40.3203 74.0664 L 38.3281 78.0234 L 34.4961 78.0234 L 32.4878 74.0313 L 34.4961 70.043 L 38.2969 70.043 L 40.3203 74.0664 ZM 39.6367 65.7813 L 38.2969 68.4409 L 34.4961 68.4409 L 32.4878 64.4492 L 34.4961 60.4609 L 38.2969 60.4609 L 39.6367 63.1211 L 40.3047 64.4492 L 39.6367 65.7813 ZM 33.0781 69.2422 L 31.0698 73.2344 L 27.2378 73.2344 L 25.23 69.2422 L 27.2378 65.25 L 31.0698 65.25 L 33.0781 69.2422 ZM 23.8281 68.4409 L 20.0269 68.4409 L 19.5469 67.4883 L 18.02 64.4492 L 20.0269 60.4609 L 23.8281 60.4609 L 25.8359 64.4492 L 23.8281 68.4409 ZM 20.0269 70.043 L 23.8281 70.043 L 25.8359 74.0313 L 23.8281 78.0234 L 20.0269 78.0234 L 19.5469 77.0703 L 18.02 74.0313 L 20.0269 70.043 ZM 27.2378 82.8164 L 25.23 78.8242 L 27.2378 74.832 L 31.0698 74.832 L 33.0781 78.8242 L 31.0698 82.8164 L 27.2378 82.8164 ZM 38.3281 87.7148 L 34.4961 87.7148 L 32.4878 83.7217 L 34.4961 79.7305 L 38.2969 79.7305 L 40.3203 83.7539 L 38.3281 87.7148 ZM 45.5273 82.9219 L 41.7266 82.9219 L 39.7031 78.8984 L 41.6914 74.9414 L 45.5273 74.9414 L 47.5352 78.9326 L 45.5273 82.9219 ZM 54.7773 83.7217 L 52.7695 87.7148 L 49.0469 87.7148 L 46.9844 83.6094 L 48.9336 79.7344 L 52.7695 79.7344 L 54.7773 83.7217 ZM 54.7773 74.0313 L 52.7695 78.0234 L 48.9336 78.0234 L 46.9258 74.0313 L 48.9336 70.043 L 52.7695 70.043 L 54.7773 74.0313 ZM 54.7773 64.4531 L 52.7695 68.4409 L 48.9336 68.4409 L 46.9258 64.4531 L 48.9336 60.4609 L 52.7695 60.4609 L 54.7773 64.4531 ZM 48.9336 50.8789 L 52.7695 50.8789 L 54.7773 54.8672 L 52.7695 58.8589 L 48.9336 58.8589 L 46.9258 54.8672 L 48.9336 50.8789 ZM 41.7266 55.668 L 45.5273 55.668 L 47.5352 59.6602 L 45.5273 63.6519 L 41.7266 63.6519 L 41.2461 62.6992 L 39.7188 59.6602 L 41.7266 55.668 ZM 34.4961 50.8789 L 38.3281 50.8789 L 40.3203 54.8359 L 38.2969 58.8589 L 34.4961 58.8589 L 32.4878 54.8672 L 34.4961 50.8789 ZM 31.0698 55.668 L 33.0781 59.6602 L 31.0698 63.6519 L 27.2378 63.6519 L 25.23 59.6602 L 27.2378 55.668 L 31.0698 55.668 ZM 19.3052 52.207 L 20.0269 50.769 L 23.8281 50.769 L 25.8359 54.7622 L 23.8281 58.75 L 19.9961 58.75 L 18.0039 54.793 L 19.3052 52.207 ZM 10.793 59.6602 L 12.7969 55.668 L 16.6328 55.668 L 18.625 59.6289 L 16.6021 63.6519 L 12.7969 63.6519 L 10.793 59.6602 ZM 10.793 69.2422 L 12.7969 65.25 L 16.6021 65.25 L 17.938 67.9102 L 18.605 69.2422 L 17.938 70.5703 L 16.6021 73.2344 L 12.7969 73.2344 L 10.793 69.2422 ZM 10.793 78.8242 L 12.7969 74.832 L 16.6021 74.832 L 18.625 78.8555 L 16.6328 82.8125 L 12.7969 82.8125 L 10.793 78.8242 ZM 10.793 78.8242 L 10.793 78.8242 Z" fill="#b4b4b4"/>
				</g>
				<g>
					<path d="M 46.8008 87.0967 L 48.23 86.3789 L 46.7891 83.5146 L 48.7969 79.5234 L 52.5981 79.5234 L 54.6211 83.5469 L 53.1992 86.3789 L 54.6289 87.0967 L 54.6328 87.082 L 54.6641 87.0967 L 55.9922 84.4531 L 59.8281 84.4531 L 61.1558 87.0967 L 62.5859 86.3789 L 61.1802 83.5859 L 63.2769 79.4141 L 67.043 79.4141 L 69.1406 83.5859 L 67.7339 86.3789 L 69.1641 87.0967 L 70.4961 84.4531 L 74.3281 84.4531 L 75.6563 87.0967 L 77.0859 86.3789 L 75.6797 83.5859 L 77.7227 79.5234 L 81.5391 79.5234 L 83.5781 83.5859 L 81.5898 87.5391 L 83.4258 87.5391 L 83.6484 87.0967 L 84.3125 85.7773 L 84.9766 84.4531 L 88.7656 84.4531 L 90.0977 87.0967 L 91.5273 86.3789 L 90.1211 83.5859 L 92.5664 78.7256 L 90.1289 73.8789 L 92.5664 69.0352 L 90.1563 64.2422 L 92.5664 59.4531 L 90.1563 54.6602 L 92.5664 49.8672 L 90.1289 45.0229 L 91.0664 43.1602 L 89.6367 42.4409 L 88.7695 44.168 L 84.9336 44.168 L 84.0664 42.4409 L 84.0547 42.4453 L 84.0547 42.4409 L 82.625 43.1602 L 83.5352 44.9692 L 81.5273 48.9609 L 77.6914 48.9609 L 75.7031 45 L 76.6289 43.1602 L 77.1797 42 L 75.3867 42 L 75.168 42.4409 L 74.5547 43.6602 L 74.2969 44.168 L 70.4961 44.168 L 69.625 42.4409 L 69.6016 42.4531 L 69.5977 42.4409 L 68.168 43.1602 L 69.0781 44.9692 L 67.0698 48.9609 L 63.2378 48.9609 L 61.23 44.9692 L 62.1411 43.1602 L 60.7109 42.4409 L 60.707 42.4453 L 60.6992 42.4409 L 59.8281 44.168 L 56.0269 44.168 L 55.1602 42.4409 L 54.9063 42 L 53.1128 42 L 53.6992 43.1602 L 53.8979 43.5581 L 54.6089 44.9692 L 53.9409 46.3013 L 52.6021 48.9609 L 48.7969 48.9609 L 46.793 44.9692 L 47.7031 43.1602 L 46.27 42.4409 L 45 44.9692 L 47.438 49.812 L 45 54.6602 L 47.4102 59.4531 L 45 64.2422 L 47.4102 69.0352 L 45 73.8242 L 47.438 78.6719 L 45 83.5146 L 46.8008 87.0967 ZM 59.8281 82.7148 L 56.0269 82.7148 L 54.0039 78.6914 L 55.9961 74.7305 L 59.8281 74.7305 L 61.8359 78.7217 L 59.8281 82.7148 ZM 75.7188 64.2422 L 77.7266 60.25 L 81.5273 60.25 L 83.5352 64.2422 L 81.5273 68.2344 L 77.7266 68.2344 L 77.2461 67.2813 L 75.7188 64.2422 ZM 76.3203 69.0664 L 74.3281 73.0234 L 70.4961 73.0234 L 68.4878 69.0313 L 70.4961 65.043 L 74.2969 65.043 L 76.3203 69.0664 ZM 75.6367 60.7813 L 74.2969 63.4409 L 70.4961 63.4409 L 68.4878 59.4492 L 70.4961 55.4609 L 74.2969 55.4609 L 75.6367 58.1211 L 76.3047 59.4492 L 75.6367 60.7813 ZM 69.0781 64.2422 L 67.0698 68.2344 L 63.2378 68.2344 L 61.23 64.2422 L 63.2378 60.25 L 67.0698 60.25 L 69.0781 64.2422 ZM 59.8281 63.4409 L 56.0269 63.4409 L 55.5469 62.4883 L 54.02 59.4492 L 56.0269 55.4609 L 59.8281 55.4609 L 61.8359 59.4492 L 59.8281 63.4409 ZM 56.0269 65.043 L 59.8281 65.043 L 61.8359 69.0313 L 59.8281 73.0234 L 56.0269 73.0234 L 55.5469 72.0703 L 54.02 69.0313 L 56.0269 65.043 ZM 63.2378 77.8164 L 61.23 73.8242 L 63.2378 69.832 L 67.0698 69.832 L 69.0781 73.8242 L 67.0698 77.8164 L 63.2378 77.8164 ZM 74.3281 82.7148 L 70.4961 82.7148 L 68.4878 78.7217 L 70.4961 74.7305 L 74.2969 74.7305 L 76.3203 78.7539 L 74.3281 82.7148 ZM 81.5273 77.9219 L 77.7266 77.9219 L 75.7031 73.8984 L 77.6914 69.9414 L 81.5273 69.9414 L 83.5352 73.9326 L 81.5273 77.9219 ZM 90.7773 78.7217 L 88.7695 82.7148 L 85.0469 82.7148 L 82.9844 78.6094 L 84.9336 74.7344 L 88.7695 74.7344 L 90.7773 78.7217 ZM 90.7773 69.0313 L 88.7695 73.0234 L 84.9336 73.0234 L 82.9258 69.0313 L 84.9336 65.043 L 88.7695 65.043 L 90.7773 69.0313 ZM 90.7773 59.4531 L 88.7695 63.4409 L 84.9336 63.4409 L 82.9258 59.4531 L 84.9336 55.4609 L 88.7695 55.4609 L 90.7773 59.4531 ZM 84.9336 45.8789 L 88.7695 45.8789 L 90.7773 49.8672 L 88.7695 53.8589 L 84.9336 53.8589 L 82.9258 49.8672 L 84.9336 45.8789 ZM 77.7266 50.668 L 81.5273 50.668 L 83.5352 54.6602 L 81.5273 58.6519 L 77.7266 58.6519 L 77.2461 57.6992 L 75.7188 54.6602 L 77.7266 50.668 ZM 70.4961 45.8789 L 74.3281 45.8789 L 76.3203 49.8359 L 74.2969 53.8589 L 70.4961 53.8589 L 68.4878 49.8672 L 70.4961 45.8789 ZM 67.0698 50.668 L 69.0781 54.6602 L 67.0698 58.6519 L 63.2378 58.6519 L 61.23 54.6602 L 63.2378 50.668 L 67.0698 50.668 ZM 55.3052 47.207 L 56.0269 45.769 L 59.8281 45.769 L 61.8359 49.7622 L 59.8281 53.75 L 55.9961 53.75 L 54.0039 49.793 L 55.3052 47.207 ZM 46.793 54.6602 L 48.7969 50.668 L 52.6328 50.668 L 54.625 54.6289 L 52.6021 58.6519 L 48.7969 58.6519 L 46.793 54.6602 ZM 46.793 64.2422 L 48.7969 60.25 L 52.6021 60.25 L 53.938 62.9102 L 54.605 64.2422 L 53.938 65.5703 L 52.6021 68.2344 L 48.7969 68.2344 L 46.793 64.2422 ZM 46.793 73.8242 L 48.7969 69.832 L 52.6021 69.832 L 54.625 73.8555 L 52.6328 77.8125 L 48.7969 77.8125 L 46.793 73.8242 ZM 46.793 73.8242 L 46.793 73.8242 Z" fill="#b4b4b4"/>
				</g>
				<g>
					<path d="M 82.8008 45.0967 L 84.23 44.3789 L 82.7891 41.5146 L 84.7969 37.5234 L 88.5981 37.5234 L 90.6211 41.5469 L 89.1992 44.3789 L 90.6289 45.0967 L 90.6328 45.082 L 90.6641 45.0967 L 91.9922 42.4531 L 95.8281 42.4531 L 97.1558 45.0967 L 98.5859 44.3789 L 97.1802 41.5859 L 99.2769 37.4141 L 103.043 37.4141 L 105.1406 41.5859 L 103.7339 44.3789 L 105.1641 45.0967 L 106.4961 42.4531 L 110.3281 42.4531 L 111.6563 45.0967 L 113.0859 44.3789 L 111.6797 41.5859 L 113.7227 37.5234 L 117.5391 37.5234 L 119.5781 41.5859 L 117.5898 45.5391 L 119.4258 45.5391 L 119.6484 45.0967 L 120.3125 43.7773 L 120.9766 42.4531 L 124.7656 42.4531 L 126.0977 45.0967 L 127.5273 44.3789 L 126.1211 41.5859 L 128.5664 36.7256 L 126.1289 31.8789 L 128.5664 27.0352 L 126.1563 22.2422 L 128.5664 17.4531 L 126.1563 12.6602 L 128.5664 7.8672 L 126.1289 3.0229 L 127.0664 1.1602 L 125.6367 0.4409 L 124.7695 2.168 L 120.9336 2.168 L 120.0664 0.4409 L 120.0547 0.4453 L 120.0547 0.4409 L 118.625 1.1602 L 119.5352 2.9692 L 117.5273 6.9609 L 113.6914 6.9609 L 111.7031 3 L 112.6289 1.1602 L 113.1797 0 L 111.3867 0 L 111.168 0.4409 L 110.5547 1.6602 L 110.2969 2.168 L 106.4961 2.168 L 105.625 0.4409 L 105.6016 0.4531 L 105.5977 0.4409 L 104.168 1.1602 L 105.0781 2.9692 L 103.0698 6.9609 L 99.2378 6.9609 L 97.23 2.9692 L 98.1411 1.1602 L 96.7109 0.4409 L 96.707 0.4453 L 96.6992 0.4409 L 95.8281 2.168 L 92.0269 2.168 L 91.1602 0.4409 L 90.9063 0 L 89.1128 0 L 89.6992 1.1602 L 89.8979 1.5581 L 90.6089 2.9692 L 89.9409 4.3013 L 88.6021 6.9609 L 84.7969 6.9609 L 82.793 2.9692 L 83.7031 1.1602 L 82.27 0.4409 L 81 2.9692 L 83.438 7.812 L 81 12.6602 L 83.4102 17.4531 L 81 22.2422 L 83.4102 27.0352 L 81 31.8242 L 83.438 36.6719 L 81 41.5146 L 82.8008 45.0967 ZM 95.8281 40.7148 L 92.0269 40.7148 L 90.0039 36.6914 L 91.9961 32.7305 L 95.8281 32.7305 L 97.8359 36.7217 L 95.8281 40.7148 ZM 111.7188 22.2422 L 113.7266 18.25 L 117.5273 18.25 L 119.5352 22.2422 L 117.5273 26.2344 L 113.7266 26.2344 L 113.2461 25.2813 L 111.7188 22.2422 ZM 112.3203 27.0664 L 110.3281 31.0234 L 106.4961 31.0234 L 104.4878 27.0313 L 106.4961 23.043 L 110.2969 23.043 L 112.3203 27.0664 ZM 111.6367 18.7813 L 110.2969 21.4409 L 106.4961 21.4409 L 104.4878 17.4492 L 106.4961 13.4609 L 110.2969 13.4609 L 111.6367 16.1211 L 112.3047 17.4492 L 111.6367 18.7813 ZM 105.0781 22.2422 L 103.0698 26.2344 L 99.2378 26.2344 L 97.23 22.2422 L 99.2378 18.25 L 103.0698 18.25 L 105.0781 22.2422 ZM 95.8281 21.4409 L 92.0269 21.4409 L 91.5469 20.4883 L 90.02 17.4492 L 92.0269 13.4609 L 95.8281 13.4609 L 97.8359 17.4492 L 95.8281 21.4409 ZM 92.0269 23.043 L 95.8281 23.043 L 97.8359 27.0313 L 95.8281 31.0234 L 92.0269 31.0234 L 91.5469 30.0703 L 90.02 27.0313 L 92.0269 23.043 ZM 99.2378 35.8164 L 97.23 31.8242 L 99.2378 27.832 L 103.0698 27.832 L 105.0781 31.8242 L 103.0698 35.8164 L 99.2378 35.8164 ZM 110.3281 40.7148 L 106.4961 40.7148 L 104.4878 36.7217 L 106.4961 32.7305 L 110.2969 32.7305 L 112.3203 36.7539 L 110.3281 40.7148 ZM 117.5273 35.9219 L 113.7266 35.9219 L 111.7031 31.8984 L 113.6914 27.9414 L 117.5273 27.9414 L 119.5352 31.9326 L 117.5273 35.9219 ZM 126.7773 36.7217 L 124.7695 40.7148 L 121.0469 40.7148 L 118.9844 36.6094 L 120.9336 32.7344 L 124.7695 32.7344 L 126.7773 36.7217 ZM 126.7773 27.0313 L 124.7695 31.0234 L 120.9336 31.0234 L 118.9258 27.0313 L 120.9336 23.043 L 124.7695 23.043 L 126.7773 27.0313 ZM 126.7773 17.4531 L 124.7695 21.4409 L 120.9336 21.4409 L 118.9258 17.4531 L 120.9336 13.4609 L 124.7695 13.4609 L 126.7773 17.4531 ZM 120.9336 3.8789 L 124.7695 3.8789 L 126.7773 7.8672 L 124.7695 11.8589 L 120.9336 11.8589 L 118.9258 7.8672 L 120.9336 3.8789 ZM 113.7266 8.668 L 117.5273 8.668 L 119.5352 12.6602 L 117.5273 16.6519 L 113.7266 16.6519 L 113.2461 15.6992 L 111.7188 12.6602 L 113.7266 8.668 ZM 106.4961 3.8789 L 110.3281 3.8789 L 112.3203 7.8359 L 110.2969 11.8589 L 106.4961 11.8589 L 104.4878 7.8672 L 106.4961 3.8789 ZM 103.0698 8.668 L 105.0781 12.6602 L 103.0698 16.6519 L 99.2378 16.6519 L 97.23 12.6602 L 99.2378 8.668 L 103.0698 8.668 ZM 91.3052 5.207 L 92.0269 3.769 L 95.8281 3.769 L 97.8359 7.7622 L 95.8281 11.75 L 91.9961 11.75 L 90.0039 7.793 L 91.3052 5.207 ZM 82.793 12.6602 L 84.7969 8.668 L 88.6328 8.668 L 90.625 12.6289 L 88.6021 16.6519 L 84.7969 16.6519 L 82.793 12.6602 ZM 82.793 22.2422 L 84.7969 18.25 L 88.6021 18.25 L 89.938 20.9102 L 90.605 22.2422 L 89.938 23.5703 L 88.6021 26.2344 L 84.7969 26.2344 L 82.793 22.2422 ZM 82.793 31.8242 L 84.7969 27.832 L 88.6021 27.832 L 90.625 31.8555 L 88.6328 35.8125 L 84.7969 35.8125 L 82.793 31.8242 ZM 82.793 31.8242 L 82.793 31.8242 Z" fill="#b4b4b4"/>
				</g>
				<g>
					<path d="M 118.8008 50.0967 L 120.23 49.3789 L 118.7891 46.5146 L 120.7969 42.5234 L 124.5981 42.5234 L 126.6211 46.5469 L 125.1992 49.3789 L 126.6289 50.0967 L 126.6328 50.082 L 126.6641 50.0967 L 127.9922 47.4531 L 131.8281 47.4531 L 133.1558 50.0967 L 134.5859 49.3789 L 133.1802 46.5859 L 135.2769 42.4141 L 139.043 42.4141 L 141.1406 46.5859 L 139.7339 49.3789 L 141.1641 50.0967 L 142.4961 47.4531 L 146.3281 47.4531 L 147.6563 50.0967 L 149.0859 49.3789 L 147.6797 46.5859 L 149.7227 42.5234 L 153.5391 42.5234 L 155.5781 46.5859 L 153.5898 50.5391 L 155.4258 50.5391 L 155.6484 50.0967 L 156.3125 48.7773 L 156.9766 47.4531 L 160.7656 47.4531 L 162.0977 50.0967 L 163.5273 49.3789 L 162.1211 46.5859 L 164.5664 41.7256 L 162.1289 36.8789 L 164.5664 32.0352 L 162.1563 27.2422 L 164.5664 22.4531 L 162.1563 17.6602 L 164.5664 12.8672 L 162.1289 8.0229 L 163.0664 6.1602 L 161.6367 5.4409 L 160.7695 7.168 L 156.9336 7.168 L 156.0664 5.4409 L 156.0547 5.4453 L 156.0547 5.4409 L 154.625 6.1602 L 155.5352 7.9692 L 153.5273 11.9609 L 149.6914 11.9609 L 147.7031 8 L 148.6289 6.1602 L 149.1797 5 L 147.3867 5 L 147.168 5.4409 L 146.5547 6.6602 L 146.2969 7.168 L 142.4961 7.168 L 141.625 5.4409 L 141.6016 5.4531 L 141.5977 5.4409 L 140.168 6.1602 L 141.0781 7.9692 L 139.0698 11.9609 L 135.2378 11.9609 L 133.23 7.9692 L 134.1411 6.1602 L 132.7109 5.4409 L 132.707 5.4453 L 132.6992 5.4409 L 131.8281 7.168 L 128.0269 7.168 L 127.1602 5.4409 L 126.9063 5 L 125.1128 5 L 125.6992 6.1602 L 125.8979 6.5581 L 126.6089 7.9692 L 125.9409 9.3013 L 124.6021 11.9609 L 120.7969 11.9609 L 118.793 7.9692 L 119.7031 6.1602 L 118.27 5.4409 L 117 7.9692 L 119.438 12.812 L 117 17.6602 L 119.4102 22.4531 L 117 27.2422 L 119.4102 32.0352 L 117 36.8242 L 119.438 41.6719 L 117 46.5146 L 118.8008 50.0967 ZM 131.8281 45.7148 L 128.0269 45.7148 L 126.0039 41.6914 L 127.9961 37.7305 L 131.8281 37.7305 L 133.8359 41.7217 L 131.8281 45.7148 ZM 147.7188 27.2422 L 149.7266 23.25 L 153.5273 23.25 L 155.5352 27.2422 L 153.5273 31.2344 L 149.7266 31.2344 L 149.2461 30.2813 L 147.7188 27.2422 ZM 148.3203 32.0664 L 146.3281 36.0234 L 142.4961 36.0234 L 140.4878 32.0313 L 142.4961 28.043 L 146.2969 28.043 L 148.3203 32.0664 ZM 147.6367 23.7813 L 146.2969 26.4409 L 142.4961 26.4409 L 140.4878 22.4492 L 142.4961 18.4609 L 146.2969 18.4609 L 147.6367 21.1211 L 148.3047 22.4492 L 147.6367 23.7813 ZM 141.0781 27.2422 L 139.0698 31.2344 L 135.2378 31.2344 L 133.23 27.2422 L 135.2378 23.25 L 139.0698 23.25 L 141.0781 27.2422 ZM 131.8281 26.4409 L 128.0269 26.4409 L 127.5469 25.4883 L 126.02 22.4492 L 128.0269 18.4609 L 131.8281 18.4609 L 133.8359 22.4492 L 131.8281 26.4409 ZM 128.0269 28.043 L 131.8281 28.043 L 133.8359 32.0313 L 131.8281 36.0234 L 128.0269 36.0234 L 127.5469 35.0703 L 126.02 32.0313 L 128.0269 28.043 ZM 135.2378 40.8164 L 133.23 36.8242 L 135.2378 32.832 L 139.0698 32.832 L 141.0781 36.8242 L 139.0698 40.8164 L 135.2378 40.8164 ZM 146.3281 45.7148 L 142.4961 45.7148 L 140.4878 41.7217 L 142.4961 37.7305 L 146.2969 37.7305 L 148.3203 41.7539 L 146.3281 45.7148 ZM 153.5273 40.9219 L 149.7266 40.9219 L 147.7031 36.8984 L 149.6914 32.9414 L 153.5273 32.9414 L 155.5352 36.9326 L 153.5273 40.9219 ZM 162.7773 41.7217 L 160.7695 45.7148 L 157.0469 45.7148 L 154.9844 41.6094 L 156.9336 37.7344 L 160.7695 37.7344 L 162.7773 41.7217 ZM 162.7773 32.0313 L 160.7695 36.0234 L 156.9336 36.0234 L 154.9258 32.0313 L 156.9336 28.043 L 160.7695 28.043 L 162.7773 32.0313 ZM 162.7773 22.4531 L 160.7695 26.4409 L 156.9336 26.4409 L 154.9258 22.4531 L 156.9336 18.4609 L 160.7695 18.4609 L 162.7773 22.4531 ZM 156.9336 8.8789 L 160.7695 8.8789 L 162.7773 12.8672 L 160.7695 16.8589 L 156.9336 16.8589 L 154.9258 12.8672 L 156.9336 8.8789 ZM 149.7266 13.668 L 153.5273 13.668 L 155.5352 17.6602 L 153.5273 21.6519 L 149.7266 21.6519 L 149.2461 20.6992 L 147.7188 17.6602 L 149.7266 13.668 ZM 142.4961 8.8789 L 146.3281 8.8789 L 148.3203 12.8359 L 146.2969 16.8589 L 142.4961 16.8589 L 140.4878 12.8672 L 142.4961 8.8789 ZM 139.0698 13.668 L 141.0781 17.6602 L 139.0698 21.6519 L 135.2378 21.6519 L 133.23 17.6602 L 135.2378 13.668 L 139.0698 13.668 ZM 127.3052 10.207 L 128.0269 8.769 L 131.8281 8.769 L 133.8359 12.7622 L 131.8281 16.75 L 127.9961 16.75 L 126.0039 12.793 L 127.3052 10.207 ZM 118.793 17.6602 L 120.7969 13.668 L 124.6328 13.668 L 126.625 17.6289 L 124.6021 21.6519 L 120.7969 21.6519 L 118.793 17.6602 ZM 118.793 27.2422 L 120.7969 23.25 L 124.6021 23.25 L 125.938 25.9102 L 126.605 27.2422 L 125.938 28.5703 L 124.6021 31.2344 L 120.7969 31.2344 L 118.793 27.2422 ZM 118.793 36.8242 L 120.7969 32.832 L 124.6021 32.832 L 126.625 36.8555 L 124.6328 40.8125 L 120.7969 40.8125 L 118.793 36.8242 ZM 118.793 36.8242 L 118.793 36.8242 Z" fill="#b4b4b4"/>
				</g>
				<g>
					<path d="M 82.8008 83.0967 L 84.23 82.3789 L 82.7891 79.5146 L 84.7969 75.5234 L 88.5981 75.5234 L 90.6211 79.5469 L 89.1992 82.3789 L 90.6289 83.0967 L 90.6328 83.082 L 90.6641 83.0967 L 91.9922 80.4531 L 95.8281 80.4531 L 97.1558 83.0967 L 98.5859 82.3789 L 97.1802 79.5859 L 99.2769 75.4141 L 103.043 75.4141 L 105.1406 79.5859 L 103.7339 82.3789 L 105.1641 83.0967 L 106.4961 80.4531 L 110.3281 80.4531 L 111.6563 83.0967 L 113.0859 82.3789 L 111.6797 79.5859 L 113.7227 75.5234 L 117.5391 75.5234 L 119.5781 79.5859 L 117.5898 83.5391 L 119.4258 83.5391 L 119.6484 83.0967 L 120.3125 81.7773 L 120.9766 80.4531 L 124.7656 80.4531 L 126.0977 83.0967 L 127.5273 82.3789 L 126.1211 79.5859 L 128.5664 74.7256 L 126.1289 69.8789 L 128.5664 65.0352 L 126.1563 60.2422 L 128.5664 55.4531 L 126.1563 50.6602 L 128.5664 45.8672 L 126.1289 41.0229 L 127.0664 39.1602 L 125.6367 38.4409 L 124.7695 40.168 L 120.9336 40.168 L 120.0664 38.4409 L 120.0547 38.4453 L 120.0547 38.4409 L 118.625 39.1602 L 119.5352 40.9692 L 117.5273 44.9609 L 113.6914 44.9609 L 111.7031 41 L 112.6289 39.1602 L 113.1797 38 L 111.3867 38 L 111.168 38.4409 L 110.5547 39.6602 L 110.2969 40.168 L 106.4961 40.168 L 105.625 38.4409 L 105.6016 38.4531 L 105.5977 38.4409 L 104.168 39.1602 L 105.0781 40.9692 L 103.0698 44.9609 L 99.2378 44.9609 L 97.23 40.9692 L 98.1411 39.1602 L 96.7109 38.4409 L 96.707 38.4453 L 96.6992 38.4409 L 95.8281 40.168 L 92.0269 40.168 L 91.1602 38.4409 L 90.9063 38 L 89.1128 38 L 89.6992 39.1602 L 89.8979 39.5581 L 90.6089 40.9692 L 89.9409 42.3013 L 88.6021 44.9609 L 84.7969 44.9609 L 82.793 40.9692 L 83.7031 39.1602 L 82.27 38.4409 L 81 40.9692 L 83.438 45.812 L 81 50.6602 L 83.4102 55.4531 L 81 60.2422 L 83.4102 65.0352 L 81 69.8242 L 83.438 74.6719 L 81 79.5146 L 82.8008 83.0967 ZM 95.8281 78.7148 L 92.0269 78.7148 L 90.0039 74.6914 L 91.9961 70.7305 L 95.8281 70.7305 L 97.8359 74.7217 L 95.8281 78.7148 ZM 111.7188 60.2422 L 113.7266 56.25 L 117.5273 56.25 L 119.5352 60.2422 L 117.5273 64.2344 L 113.7266 64.2344 L 113.2461 63.2813 L 111.7188 60.2422 ZM 112.3203 65.0664 L 110.3281 69.0234 L 106.4961 69.0234 L 104.4878 65.0313 L 106.4961 61.043 L 110.2969 61.043 L 112.3203 65.0664 ZM 111.6367 56.7813 L 110.2969 59.4409 L 106.4961 59.4409 L 104.4878 55.4492 L 106.4961 51.4609 L 110.2969 51.4609 L 111.6367 54.1211 L 112.3047 55.4492 L 111.6367 56.7813 ZM 105.0781 60.2422 L 103.0698 64.2344 L 99.2378 64.2344 L 97.23 60.2422 L 99.2378 56.25 L 103.0698 56.25 L 105.0781 60.2422 ZM 95.8281 59.4409 L 92.0269 59.4409 L 91.5469 58.4883 L 90.02 55.4492 L 92.0269 51.4609 L 95.8281 51.4609 L 97.8359 55.4492 L 95.8281 59.4409 ZM 92.0269 61.043 L 95.8281 61.043 L 97.8359 65.0313 L 95.8281 69.0234 L 92.0269 69.0234 L 91.5469 68.0703 L 90.02 65.0313 L 92.0269 61.043 ZM 99.2378 73.8164 L 97.23 69.8242 L 99.2378 65.832 L 103.0698 65.832 L 105.0781 69.8242 L 103.0698 73.8164 L 99.2378 73.8164 ZM 110.3281 78.7148 L 106.4961 78.7148 L 104.4878 74.7217 L 106.4961 70.7305 L 110.2969 70.7305 L 112.3203 74.7539 L 110.3281 78.7148 ZM 117.5273 73.9219 L 113.7266 73.9219 L 111.7031 69.8984 L 113.6914 65.9414 L 117.5273 65.9414 L 119.5352 69.9326 L 117.5273 73.9219 ZM 126.7773 74.7217 L 124.7695 78.7148 L 121.0469 78.7148 L 118.9844 74.6094 L 120.9336 70.7344 L 124.7695 70.7344 L 126.7773 74.7217 ZM 126.7773 65.0313 L 124.7695 69.0234 L 120.9336 69.0234 L 118.9258 65.0313 L 120.9336 61.043 L 124.7695 61.043 L 126.7773 65.0313 ZM 126.7773 55.4531 L 124.7695 59.4409 L 120.9336 59.4409 L 118.9258 55.4531 L 120.9336 51.4609 L 124.7695 51.4609 L 126.7773 55.4531 ZM 120.9336 41.8789 L 124.7695 41.8789 L 126.7773 45.8672 L 124.7695 49.8589 L 120.9336 49.8589 L 118.9258 45.8672 L 120.9336 41.8789 ZM 113.7266 46.668 L 117.5273 46.668 L 119.5352 50.6602 L 117.5273 54.6519 L 113.7266 54.6519 L 113.2461 53.6992 L 111.7188 50.6602 L 113.7266 46.668 ZM 106.4961 41.8789 L 110.3281 41.8789 L 112.3203 45.8359 L 110.2969 49.8589 L 106.4961 49.8589 L 104.4878 45.8672 L 106.4961 41.8789 ZM 103.0698 46.668 L 105.0781 50.6602 L 103.0698 54.6519 L 99.2378 54.6519 L 97.23 50.6602 L 99.2378 46.668 L 103.0698 46.668 ZM 91.3052 43.207 L 92.0269 41.769 L 95.8281 41.769 L 97.8359 45.7622 L 95.8281 49.75 L 91.9961 49.75 L 90.0039 45.793 L 91.3052 43.207 ZM 82.793 50.6602 L 84.7969 46.668 L 88.6328 46.668 L 90.625 50.6289 L 88.6021 54.6519 L 84.7969 54.6519 L 82.793 50.6602 ZM 82.793 60.2422 L 84.7969 56.25 L 88.6021 56.25 L 89.938 58.9102 L 90.605 60.2422 L 89.938 61.5703 L 88.6021 64.2344 L 84.7969 64.2344 L 82.793 60.2422 ZM 82.793 69.8242 L 84.7969 65.832 L 88.6021 65.832 L 90.625 69.8555 L 88.6328 73.8125 L 84.7969 73.8125 L 82.793 69.8242 ZM 82.793 69.8242 L 82.793 69.8242 Z" fill="#b4b4b4"/>
				</g>
				<g>
					<path d="M 118.8008 88.0967 L 120.23 87.3789 L 118.7891 84.5146 L 120.7969 80.5234 L 124.5981 80.5234 L 126.6211 84.5469 L 125.1992 87.3789 L 126.6289 88.0967 L 126.6328 88.082 L 126.6641 88.0967 L 127.9922 85.4531 L 131.8281 85.4531 L 133.1558 88.0967 L 134.5859 87.3789 L 133.1802 84.5859 L 135.2769 80.4141 L 139.043 80.4141 L 141.1406 84.5859 L 139.7339 87.3789 L 141.1641 88.0967 L 142.4961 85.4531 L 146.3281 85.4531 L 147.6563 88.0967 L 149.0859 87.3789 L 147.6797 84.5859 L 149.7227 80.5234 L 153.5391 80.5234 L 155.5781 84.5859 L 153.5898 88.5391 L 155.4258 88.5391 L 155.6484 88.0967 L 156.3125 86.7773 L 156.9766 85.4531 L 160.7656 85.4531 L 162.0977 88.0967 L 163.5273 87.3789 L 162.1211 84.5859 L 164.5664 79.7256 L 162.1289 74.8789 L 164.5664 70.0352 L 162.1563 65.2422 L 164.5664 60.4531 L 162.1563 55.6602 L 164.5664 50.8672 L 162.1289 46.0229 L 163.0664 44.1602 L 161.6367 43.4409 L 160.7695 45.168 L 156.9336 45.168 L 156.0664 43.4409 L 156.0547 43.4453 L 156.0547 43.4409 L 154.625 44.1602 L 155.5352 45.9692 L 153.5273 49.9609 L 149.6914 49.9609 L 147.7031 46 L 148.6289 44.1602 L 149.1797 43 L 147.3867 43 L 147.168 43.4409 L 146.5547 44.6602 L 146.2969 45.168 L 142.4961 45.168 L 141.625 43.4409 L 141.6016 43.4531 L 141.5977 43.4409 L 140.168 44.1602 L 141.0781 45.9692 L 139.0698 49.9609 L 135.2378 49.9609 L 133.23 45.9692 L 134.1411 44.1602 L 132.7109 43.4409 L 132.707 43.4453 L 132.6992 43.4409 L 131.8281 45.168 L 128.0269 45.168 L 127.1602 43.4409 L 126.9063 43 L 125.1128 43 L 125.6992 44.1602 L 125.8979 44.5581 L 126.6089 45.9692 L 125.9409 47.3013 L 124.6021 49.9609 L 120.7969 49.9609 L 118.793 45.9692 L 119.7031 44.1602 L 118.27 43.4409 L 117 45.9692 L 119.438 50.812 L 117 55.6602 L 119.4102 60.4531 L 117 65.2422 L 119.4102 70.0352 L 117 74.8242 L 119.438 79.6719 L 117 84.5146 L 118.8008 88.0967 ZM 131.8281 83.7148 L 128.0269 83.7148 L 126.0039 79.6914 L 127.9961 75.7305 L 131.8281 75.7305 L 133.8359 79.7217 L 131.8281 83.7148 ZM 147.7188 65.2422 L 149.7266 61.25 L 153.5273 61.25 L 155.5352 65.2422 L 153.5273 69.2344 L 149.7266 69.2344 L 149.2461 68.2813 L 147.7188 65.2422 ZM 148.3203 70.0664 L 146.3281 74.0234 L 142.4961 74.0234 L 140.4878 70.0313 L 142.4961 66.043 L 146.2969 66.043 L 148.3203 70.0664 ZM 147.6367 61.7813 L 146.2969 64.4409 L 142.4961 64.4409 L 140.4878 60.4492 L 142.4961 56.4609 L 146.2969 56.4609 L 147.6367 59.1211 L 148.3047 60.4492 L 147.6367 61.7813 ZM 141.0781 65.2422 L 139.0698 69.2344 L 135.2378 69.2344 L 133.23 65.2422 L 135.2378 61.25 L 139.0698 61.25 L 141.0781 65.2422 ZM 131.8281 64.4409 L 128.0269 64.4409 L 127.5469 63.4883 L 126.02 60.4492 L 128.0269 56.4609 L 131.8281 56.4609 L 133.8359 60.4492 L 131.8281 64.4409 ZM 128.0269 66.043 L 131.8281 66.043 L 133.8359 70.0313 L 131.8281 74.0234 L 128.0269 74.0234 L 127.5469 73.0703 L 126.02 70.0313 L 128.0269 66.043 ZM 135.2378 78.8164 L 133.23 74.8242 L 135.2378 70.832 L 139.0698 70.832 L 141.0781 74.8242 L 139.0698 78.8164 L 135.2378 78.8164 ZM 146.3281 83.7148 L 142.4961 83.7148 L 140.4878 79.7217 L 142.4961 75.7305 L 146.2969 75.7305 L 148.3203 79.7539 L 146.3281 83.7148 ZM 153.5273 78.9219 L 149.7266 78.9219 L 147.7031 74.8984 L 149.6914 70.9414 L 153.5273 70.9414 L 155.5352 74.9326 L 153.5273 78.9219 ZM 162.7773 79.7217 L 160.7695 83.7148 L 157.0469 83.7148 L 154.9844 79.6094 L 156.9336 75.7344 L 160.7695 75.7344 L 162.7773 79.7217 ZM 162.7773 70.0313 L 160.7695 74.0234 L 156.9336 74.0234 L 154.9258 70.0313 L 156.9336 66.043 L 160.7695 66.043 L 162.7773 70.0313 ZM 162.7773 60.4531 L 160.7695 64.4409 L 156.9336 64.4409 L 154.9258 60.4531 L 156.9336 56.4609 L 160.7695 56.4609 L 162.7773 60.4531 ZM 156.9336 46.8789 L 160.7695 46.8789 L 162.7773 50.8672 L 160.7695 54.8589 L 156.9336 54.8589 L 154.9258 50.8672 L 156.9336 46.8789 ZM 149.7266 51.668 L 153.5273 51.668 L 155.5352 55.6602 L 153.5273 59.6519 L 149.7266 59.6519 L 149.2461 58.6992 L 147.7188 55.6602 L 149.7266 51.668 ZM 142.4961 46.8789 L 146.3281 46.8789 L 148.3203 50.8359 L 146.2969 54.8589 L 142.4961 54.8589 L 140.4878 50.8672 L 142.4961 46.8789 ZM 139.0698 51.668 L 141.0781 55.6602 L 139.0698 59.6519 L 135.2378 59.6519 L 133.23 55.6602 L 135.2378 51.668 L 139.0698 51.668 ZM 127.3052 48.207 L 128.0269 46.769 L 131.8281 46.769 L 133.8359 50.7622 L 131.8281 54.75 L 127.9961 54.75 L 126.0039 50.793 L 127.3052 48.207 ZM 118.793 55.6602 L 120.7969 51.668 L 124.6328 51.668 L 126.625 55.6289 L 124.6021 59.6519 L 120.7969 59.6519 L 118.793 55.6602 ZM 118.793 65.2422 L 120.7969 61.25 L 124.6021 61.25 L 125.938 63.9102 L 126.605 65.2422 L 125.938 66.5703 L 124.6021 69.2344 L 120.7969 69.2344 L 118.793 65.2422 ZM 118.793 74.8242 L 120.7969 70.832 L 124.6021 70.832 L 126.625 74.8555 L 124.6328 78.8125 L 120.7969 78.8125 L 118.793 74.8242 ZM 118.793 74.8242 L 118.793 74.8242 Z" fill="#b4b4b4"/>
				</g>
			</g>
		</g>
	</g>
</svg>