<?xml version="1.0" standalone="no"?>
<!-- Generator: Adobe Fireworks 10, Export SVG Extension by Aaron Beall (http://fireworks.abeall.com) . Version: 0.6.1  -->
<!DOCTYPE svg PUBLIC "-//W3C//DTD SVG 1.1//EN" "http://www.w3.org/Graphics/SVG/1.1/DTD/svg11.dtd">
<svg id="Untitled-Page%201" viewBox="0 0 38 39" style="background-color:#ffffff00" version="1.1"
	xmlns="http://www.w3.org/2000/svg" xmlns:xlink="http://www.w3.org/1999/xlink" xml:space="preserve"
	x="0px" y="0px" width="38px" height="39px"
>
	<g id="Layer%201">
		<g>
			<path d="M 26.3396 8.7549 C 26.3396 13.3141 22.6287 17.012 18.0561 17.012 C 13.4798 17.012 9.7689 13.3141 9.7689 8.7549 C 9.7689 4.1946 13.4798 0.5 18.0561 0.5 C 22.6287 0.5 26.3396 4.1946 26.3396 8.7549 L 26.3396 8.7549 ZM 26.3396 8.7549 L 26.3396 8.7549 Z" fill="#ffffff"/>
			<path d="M 37.0625 19.6875 L 35.211 19.0015 L 32.3621 18.2976 L 29.711 17.6416 C 29.1796 17.507 28.6158 17.4301 28.0164 17.3856 L 28.0164 17.3684 L 24.0575 17.3217 L 23.9749 17.6629 C 23.4376 19.8804 21.6396 20.6014 19.3901 21.0426 C 18.4391 21.2309 17.7339 21.2111 16.7445 20.9485 C 14.6429 20.3932 13.0218 19.7509 12.5199 17.6629 L 12.4377 17.3217 C 12.4377 17.3217 9.1219 17.3331 8.9898 17.3419 L 8.9898 17.3389 C 8.9898 17.3389 7.2296 17.5445 6.8488 17.6416 L 3.7434 18.4098 L 0.8979 19.1125 L 0 19.3332 L 0 29.466 C 0.1148 29.4601 0.3362 29.4954 0.3362 29.4954 C 0.7384 29.6035 3.0625 29.3125 2.9772 30.4309 L 2.9772 37.894 L 23.7867 37.891 C 24.7905 38.2794 25.8769 38.5 27.0164 38.5 C 31.9702 38.5 36 34.4836 36 29.5508 C 36 28.4586 37.4822 29.7811 37.125 28.8125 L 37.0625 19.6875 ZM 27.119 18.2186 L 27.119 18.2186 ZM 33.8833 31.6035 C 33.8508 31.7065 33.8124 31.8072 33.777 31.9102 C 33.467 32.7891 32.9917 33.5929 32.3835 34.2777 C 31.427 35.3522 30.1546 36.1377 28.7081 36.4848 C 28.1649 36.6172 27.601 36.693 27.0164 36.693 C 26.8659 36.693 26.7183 36.6812 26.5677 36.6731 C 26.4171 36.6606 26.2666 36.6488 26.119 36.6312 C 25.4341 36.5466 24.7816 36.3693 24.1705 36.1053 C 24.017 36.0406 23.8694 35.9663 23.7218 35.8906 C 23.5682 35.8104 23.4199 35.7221 23.273 35.6346 C 21.2213 34.3784 19.8485 32.1279 19.8485 29.5508 C 19.8485 26.9767 21.2213 24.7254 23.273 23.467 C 23.4199 23.3751 23.5682 23.2898 23.7218 23.2111 C 23.8694 23.1338 24.017 23.061 24.1705 22.9963 C 24.7816 22.7308 25.4341 22.555 26.119 22.469 C 26.2666 22.4521 26.4171 22.4396 26.5677 22.4315 C 26.7183 22.419 26.8659 22.4072 27.0164 22.4072 C 28.6549 22.4072 30.1576 22.961 31.365 23.8781 C 31.5186 23.9965 31.6691 24.123 31.8138 24.2525 C 31.9702 24.393 32.1178 24.5371 32.2625 24.693 C 33.4522 25.9676 34.1873 27.6739 34.1873 29.5508 C 34.1873 30.262 34.0781 30.9504 33.8833 31.6035 L 33.8833 31.6035 ZM 33.2625 19.442 L 33.2625 19.442 ZM 34.211 24.2113 L 34.211 24.2113 Z" fill="#ffffff"/>
			<path d="M 31.365 28.477 C 31.2588 28.4447 31.1525 28.4241 31.0373 28.4241 L 28.1471 28.4241 L 28.1471 25.5432 C 28.1471 24.9196 27.6423 24.4165 27.0164 24.4165 C 26.857 24.4165 26.7065 24.4489 26.5677 24.5106 C 26.3906 24.5879 26.2371 24.7144 26.119 24.8666 C 25.9773 25.0556 25.8857 25.288 25.8857 25.5432 L 25.8857 28.4241 L 22.9985 28.4241 C 22.3726 28.4241 21.8678 28.9271 21.8678 29.5508 C 21.8678 30.1715 22.3726 30.6776 22.9985 30.6776 L 25.8857 30.6776 L 25.8857 33.554 C 25.8857 33.8106 25.9773 34.0431 26.119 34.2335 C 26.2371 34.3873 26.3906 34.5108 26.5677 34.5895 C 26.7065 34.6483 26.857 34.6807 27.0164 34.6807 C 27.6423 34.6807 28.1471 34.1776 28.1471 33.554 L 28.1471 30.6776 L 31.0373 30.6776 C 31.1525 30.6776 31.2617 30.654 31.365 30.6239 C 31.5333 30.5709 31.6868 30.4863 31.8108 30.3657 C 32.0293 30.162 32.168 29.8707 32.168 29.5508 C 32.168 29.2265 32.0293 28.9382 31.8108 28.733 C 31.6868 28.6153 31.5333 28.5263 31.365 28.477 L 31.365 28.477 ZM 31.365 28.477 L 31.365 28.477 Z" fill="#ffffff"/>
		</g>
	</g>
</svg>