<?xml version="1.0" standalone="no"?>
<!-- Generator: Adobe Fireworks 10, Export SVG Extension by Aaron Beall (http://fireworks.abeall.com) . Version: 0.6.1  -->
<!DOCTYPE svg PUBLIC "-//W3C//DTD SVG 1.1//EN" "http://www.w3.org/Graphics/SVG/1.1/DTD/svg11.dtd">
<svg id="Untitled-Page%201" viewBox="0 0 116 116" style="background-color:#ffffff00" version="1.1"
	xmlns="http://www.w3.org/2000/svg" xmlns:xlink="http://www.w3.org/1999/xlink" xml:space="preserve"
	x="0px" y="0px" width="116px" height="116px"
>
	<g id="Layer%201">
		<g>
			<g>
				<path d="M 47.9218 80.3162 L 55.8087 67.8026 L 43.7753 62.3795 L 40.0387 67.8026 L 47.9218 80.3162 Z" fill="#dddddd"/>
				<path d="M 59.8973 67.8026 L 67.7843 80.3162 L 75.6674 67.8026 L 71.9297 62.3795 L 59.8973 67.8026 Z" fill="#dddddd"/>
				<path d="M 40 112.3333 L 47.362 113 L 48.5143 113 L 57.9603 113 L 63.0695 107.9258 L 63.9139 112.4549 L 63.4445 113 L 67.7804 113 L 68.3421 113 L 80.6667 111.6667 L 96.1979 99.4731 L 86.963 74.1246 C 86.6744 73.2973 86.2397 72.5763 85.751 71.89 C 85.5279 71.575 85.0432 71.055 85.0432 71.055 C 84.014 69.8893 82.7444 69.0582 81.3016 68.6899 L 79.076 68.4695 L 76.8542 68.4695 C 76.8253 68.63 76.8138 68.7943 76.7253 68.9393 L 75.2095 71.3469 L 69.6464 80.1731 L 68.8423 81.4528 C 68.6115 81.8162 68.2152 82.0327 67.7881 82.0327 C 67.3649 82.0327 66.9648 81.8162 66.7339 81.4528 L 63.0214 75.5609 L 63.9177 79.4521 L 59.2471 87.4259 L 60.1051 92.0343 L 54.9382 97.1646 L 56.756 87.4259 L 52.0854 79.4521 L 53.0415 75.1762 L 49.0836 81.4528 C 48.8557 81.8162 48.4556 82.0327 48.0305 82.0327 C 47.6063 82.0327 47.2071 81.8162 46.9782 81.4528 L 46.0462 79.9779 L 42.095 73.7091 L 39.0932 68.9412 C 39.0047 68.7962 38.9902 68.6319 38.9653 68.4724 L 36.9321 68.4724 L 34.6967 68.6918 C 33.2531 69.0601 31.9844 69.8932 30.9514 71.0569 C 30.9514 71.0569 30.4715 71.5789 30.282 71.8379 C 29.7635 72.5724 29.3307 73.3031 29.0374 74.1266 L 19.8317 99.3935 L 40 112.3333 ZM 53.6956 103.8297 L 60.9631 96.6136 L 62.2172 103.3503 L 52.5308 112.971 L 52.0874 112.4549 L 53.6956 103.8297 Z" fill="#dddddd"/>
				<path d="M 38.9076 47.5241 C 38.6277 40.5004 38.4391 22.9097 43.4387 21.7141 C 45.4421 21.229 46.5569 21.9693 47.9669 22.8991 C 50.636 24.6591 55.6096 27.9511 74.3843 27.4698 L 74.9248 27.4562 L 75.2268 27.9095 C 75.3769 28.1347 78.7586 33.3742 79.2357 46.2425 C 79.8571 45.7379 80.5957 44.9899 81.2498 43.9905 C 81.7383 42.0449 82.023 40.0181 82.023 37.9198 C 82.023 24.5895 71.6123 13.7442 58.5085 13.0677 L 58.5085 13 C 58.2777 13 58.0757 13.028 57.8544 13.0319 C 57.639 13.028 57.4274 13 57.2081 13 L 57.2081 13.0657 C 44.0947 13.7403 33.6839 24.5837 33.6839 37.9149 C 33.6839 39.7997 33.9128 41.6264 34.3082 43.3903 C 35.6576 45.3107 37.2908 47.0717 38.9076 47.5241 Z" fill="#dddddd"/>
				<path d="M 78.7144 48.9371 L 77.3351 49.5847 L 77.3101 48.0537 C 77.1409 36.7242 74.6555 31.0294 73.8438 29.4637 C 54.9266 29.8571 49.7059 26.4153 46.8859 24.5557 C 45.5989 23.709 45.0652 23.363 43.8936 23.6394 C 41.3506 24.2493 40.3715 37.0547 40.9246 48.5708 L 40.9707 49.5364 L 40.0108 49.606 C 39.905 49.6137 39.7982 49.6176 39.6915 49.6176 C 38.3228 49.6176 37.0244 48.9787 35.8394 48.0286 C 39.5385 56.3619 47.6438 62.2867 57.2043 62.7835 L 57.2043 62.8483 C 57.4274 62.8483 57.6351 62.8183 57.8506 62.8164 C 58.0718 62.8183 58.2777 62.8483 58.5047 62.8483 L 58.5047 62.7835 C 67.9459 62.2925 75.9636 56.5079 79.7224 48.3388 C 79.1683 48.7129 78.7759 48.9072 78.7144 48.9371 Z" fill="#dddddd"/>
			</g>
			<path id="Ellipse" d="M 3 58 C 3 27.6239 27.624 3 58 3 C 88.376 3 113 27.6239 113 58 C 113 88.3761 88.376 113 58 113 C 27.624 113 3 88.3761 3 58 Z" stroke="#dddddd" stroke-width="3" fill="none"/>
		</g>
	</g>
</svg>