<?xml version="1.0" standalone="no"?>
<!-- Generator: Adobe Fireworks 10, Export SVG Extension by Aaron Beall (http://fireworks.abeall.com) . Version: 0.6.1  -->
<!DOCTYPE svg PUBLIC "-//W3C//DTD SVG 1.1//EN" "http://www.w3.org/Graphics/SVG/1.1/DTD/svg11.dtd">
<svg id="Untitled-Page%201" viewBox="0 0 80 66" style="background-color:#ffffff00" version="1.1"
	xmlns="http://www.w3.org/2000/svg" xmlns:xlink="http://www.w3.org/1999/xlink" xml:space="preserve"
	x="0px" y="0px" width="80px" height="66px"
>
	<g id="Layer%201">
		<path d="M 41.73 36.74 C 40.8821 34.8513 40.4597 32.3371 40.4597 29.1927 C 40.4597 25.5743 41.0215 22.782 42.1451 20.8163 C 43.2699 18.8507 45.2271 17.8676 48.019 17.8676 C 50.811 17.8676 52.7707 18.8507 53.8931 20.8163 C 54.1236 21.2197 54.3318 21.6571 54.515 22.13 L 51.02 26.155 C 50.9223 24.9902 50.7619 24.0482 50.5361 23.3255 C 50.1376 22.0561 49.299 21.4211 48.019 21.4211 C 46.7403 21.4211 45.8929 22.0549 45.4793 23.3255 C 45.0657 24.5968 44.8589 26.5517 44.8589 29.1927 C 44.8589 30.644 44.9279 31.8968 45.065 32.955 L 41.73 36.74 ZM 29.5736 39.9433 L 29.5736 24.8226 L 24.4178 24.8226 L 24.4178 21.8896 C 25.7759 21.8291 26.7255 21.7383 27.2677 21.6172 C 28.1316 21.4261 28.8365 21.0421 29.3788 20.4676 C 29.752 20.0735 30.0326 19.5495 30.2237 18.8949 C 30.3346 18.502 30.3901 18.2088 30.3901 18.0177 L 33.9892 18.0177 L 33.9892 39.9433 L 29.5736 39.9433 ZM 2.3556 19.0431 C 2.7982 20.7779 4.3569 21.9893 6.1482 21.9893 C 6.4641 21.9893 6.7806 21.9502 7.0896 21.8739 L 13.5733 20.2633 C 14.3079 20.0867 14.4989 20.6587 14.4989 20.9866 L 14.4989 62.1041 C 14.4989 64.252 16.2474 66 18.3949 66 L 61.636 66 C 63.7835 66 65.5326 64.252 65.5326 62.1041 L 65.5326 20.9961 C 65.5326 20.7117 65.6145 20.2349 66.1732 20.2349 C 66.2615 20.2349 66.3599 20.2482 66.4557 20.2728 L 72.9098 21.8751 C 73.2175 21.9514 73.5353 21.9905 73.8518 21.9905 C 75.6437 21.9905 77.2024 20.7791 77.6438 19.0443 L 79.8771 10.2896 C 80.1357 9.2794 79.9831 8.2319 79.4496 7.3384 C 78.9149 6.4461 78.065 5.8161 77.0536 5.5651 L 56.5816 0.4818 C 55.3483 0.1684 54.0797 0.0082 52.7972 0.0082 L 47.7895 0 L 47.5499 0.9894 C 46.7025 4.5189 43.5776 6.9834 39.9508 6.9834 C 36.3234 6.9834 33.1985 4.5189 32.3517 0.9894 L 32.1127 0 L 27.4134 0 L 27.1826 0.0095 C 25.9127 0.0095 24.6435 0.1696 23.4196 0.4805 L 2.947 5.5651 C 1.9344 5.8161 1.0851 6.4461 0.5504 7.3384 C 0.0169 8.2307 -0.1356 9.2794 0.1229 10.2896 L 2.3556 19.0431 ZM 45.065 32.955 L 51.02 26.155 C 51.0941 27.0394 51.1326 28.0529 51.1326 29.1927 C 51.1326 31.7126 50.9333 33.641 50.5361 34.9767 C 50.1376 36.311 49.299 36.9807 48.019 36.9807 C 46.7403 36.9807 45.8929 36.311 45.4793 34.9767 C 45.3038 34.4104 45.166 33.7351 45.065 32.955 ZM 67.75 5.75 L 76.4319 8.073 C 76.7711 8.1569 77.0536 8.3675 77.2327 8.6645 C 77.4118 8.9615 77.4622 9.3116 77.3739 9.6514 L 75.1418 18.4062 C 74.964 19.0999 74.2314 19.5457 73.5327 19.3685 L 67.0812 17.7661 C 66.7785 17.6911 66.4721 17.6538 66.1757 17.6538 C 64.3371 17.6538 62.9525 19.091 62.9525 20.9973 L 62.9525 62.1066 C 62.9525 62.8306 62.3623 63.4196 61.6372 63.4196 L 18.3949 63.4196 C 18.0379 63.4196 29.6674 50.4207 41.73 36.74 C 41.8582 37.0255 41.9975 37.2977 42.1451 37.5546 C 43.2699 39.5107 45.2271 40.4882 48.019 40.4882 C 50.811 40.4882 52.7682 39.5107 53.8931 37.5546 C 55.0167 35.5996 55.5778 32.8124 55.5778 29.1927 C 55.5778 26.3158 55.2246 23.9616 54.515 22.13 C 61.7321 13.7812 67.2782 7.1136 67.75 5.75 Z" fill="#dddddd"/>
	</g>
</svg>