<?xml version="1.0" standalone="no"?>
<!-- Generator: Adobe Fireworks 10, Export SVG Extension by Aaron Beall (http://fireworks.abeall.com) . Version: 0.6.1  -->
<!DOCTYPE svg PUBLIC "-//W3C//DTD SVG 1.1//EN" "http://www.w3.org/Graphics/SVG/1.1/DTD/svg11.dtd">
<svg id="Untitled-Page%201" viewBox="0 0 116 116" style="background-color:#ffffff00" version="1.1"
	xmlns="http://www.w3.org/2000/svg" xmlns:xlink="http://www.w3.org/1999/xlink" xml:space="preserve"
	x="0px" y="0px" width="116px" height="116px"
>
	<g id="Layer%201">
		<g>
			<g>
				<path d="M 20.3556 44.0431 C 20.7982 45.7779 22.3569 46.9893 24.1482 46.9893 C 24.4641 46.9893 24.7806 46.9502 25.0896 46.8739 L 31.5733 45.2633 C 32.3079 45.0867 32.4989 45.6587 32.4989 45.9866 L 32.4989 87.1041 C 32.4989 89.252 34.2474 91 36.3949 91 L 79.636 91 C 81.7835 91 83.5326 89.252 83.5326 87.1041 L 83.5326 45.9961 C 83.5326 45.7117 83.6145 45.2349 84.1732 45.2349 C 84.2615 45.2349 84.3599 45.2482 84.4557 45.2728 L 90.9098 46.8751 C 91.2175 46.9514 91.5353 46.9905 91.8518 46.9905 C 93.6437 46.9905 95.2024 45.7791 95.6438 44.0443 L 97.8771 35.2896 C 98.1357 34.2794 97.9831 33.2319 97.4496 32.3384 C 96.9149 31.4461 96.065 30.8161 95.0536 30.5651 L 74.5816 25.4818 C 73.3483 25.1684 72.0797 25.0082 70.7972 25.0082 L 65.7895 25 L 65.5499 25.9894 C 64.7025 29.5189 61.5776 31.9834 57.9508 31.9834 C 54.3234 31.9834 51.1985 29.5189 50.3517 25.9894 L 50.1127 25 L 45.4134 25 L 45.1826 25.0095 C 43.9127 25.0095 42.6435 25.1696 41.4196 25.4805 L 20.947 30.5651 C 19.9344 30.8161 19.0851 31.4461 18.5504 32.3384 C 18.0169 33.2307 17.8644 34.2794 18.1229 35.2896 L 20.3556 44.0431 ZM 20.766 33.6645 C 20.9445 33.3663 21.2282 33.1556 21.5681 33.073 L 28.4364 31.3672 L 29.7561 36.5616 L 37.8918 34.4938 L 36.5835 29.3449 L 42.0533 27.9859 C 43.0773 27.7255 44.1296 27.5924 45.2545 27.5924 L 48.1329 27.583 C 49.573 31.7418 53.4766 34.5663 57.9533 34.5663 C 62.4301 34.5663 66.333 31.7418 67.7719 27.583 L 70.8123 27.5924 C 71.8628 27.5924 72.9221 27.7255 73.9536 27.9885 L 94.4319 33.073 C 94.7711 33.1569 95.0536 33.3675 95.2327 33.6645 C 95.4118 33.9615 95.4622 34.3116 95.3739 34.6514 L 93.1418 43.4062 C 92.964 44.0999 92.2314 44.5457 91.5327 44.3685 L 85.0812 42.7661 C 84.7785 42.6911 84.4721 42.6538 84.1757 42.6538 C 82.3371 42.6538 80.9525 44.091 80.9525 45.9973 L 80.9525 87.1066 C 80.9525 87.8306 80.3623 88.4196 79.6372 88.4196 L 36.3949 88.4196 C 35.6705 88.4196 35.0816 87.8306 35.0816 87.1066 L 35.0816 45.9879 C 35.0816 44.0815 33.695 42.6444 31.8558 42.6444 C 31.5588 42.6444 31.253 42.6816 30.951 42.7567 L 24.4673 44.3672 C 23.7566 44.5432 23.0347 44.0986 22.8569 43.4049 L 20.6242 34.6502 C 20.5378 34.3116 20.5876 33.9615 20.766 33.6645 Z" fill="#dddddd"/>
				<path d="M 47.5736 64.9433 L 51.9892 64.9433 L 51.9892 43.0177 L 48.3901 43.0177 C 48.3901 43.2088 48.3346 43.502 48.2237 43.8949 C 48.0326 44.5495 47.752 45.0735 47.3788 45.4676 C 46.8365 46.0421 46.1316 46.4261 45.2677 46.6172 C 44.7255 46.7383 43.7759 46.8291 42.4178 46.8896 L 42.4178 49.8226 L 47.5736 49.8226 L 47.5736 64.9433 Z" fill="#dddddd"/>
				<path d="M 66.019 65.4882 C 68.811 65.4882 70.7682 64.5107 71.8931 62.5546 C 73.0167 60.5996 73.5778 57.8124 73.5778 54.1927 C 73.5778 50.573 73.0167 47.782 71.8931 45.8163 C 70.7707 43.8507 68.811 42.8676 66.019 42.8676 C 63.2271 42.8676 61.2699 43.8507 60.1451 45.8163 C 59.0215 47.782 58.4597 50.5743 58.4597 54.1927 C 58.4597 57.8124 59.0215 60.5984 60.1451 62.5546 C 61.2699 64.5107 63.2271 65.4882 66.019 65.4882 ZM 63.4793 48.3255 C 63.8929 47.0549 64.7403 46.4211 66.019 46.4211 C 67.299 46.4211 68.1376 47.0561 68.5361 48.3255 C 68.9333 49.5968 69.1326 51.5517 69.1326 54.1927 C 69.1326 56.7126 68.9333 58.641 68.5361 59.9767 C 68.1376 61.311 67.299 61.9807 66.019 61.9807 C 64.7403 61.9807 63.8929 61.311 63.4793 59.9767 C 63.0657 58.6423 62.8589 56.7139 62.8589 54.1927 C 62.8589 51.5517 63.0657 49.5968 63.4793 48.3255 Z" fill="#dddddd"/>
				<path d="M 38.243 81.3126 L 42.2393 81.3517 L 42.1901 86.2427 L 38.1938 86.2023 L 38.243 81.3126 Z" fill="#dddddd"/>
			</g>
			<path id="Ellipse" d="M 3 58 C 3 27.6239 27.624 3 58 3 C 88.376 3 113 27.6239 113 58 C 113 88.3761 88.376 113 58 113 C 27.624 113 3 88.3761 3 58 Z" stroke="#dddddd" stroke-width="3" fill="none"/>
		</g>
	</g>
</svg>