<?xml version="1.0" standalone="no"?>
<!-- Generator: Adobe Fireworks 10, Export SVG Extension by Aaron Beall (http://fireworks.abeall.com) . Version: 0.6.1  -->
<!DOCTYPE svg PUBLIC "-//W3C//DTD SVG 1.1//EN" "http://www.w3.org/Graphics/SVG/1.1/DTD/svg11.dtd">
<svg id="Untitled-Page%201" viewBox="0 0 250 50" style="background-color:#ffffff00" version="1.1"
	xmlns="http://www.w3.org/2000/svg" xmlns:xlink="http://www.w3.org/1999/xlink" xml:space="preserve"
	x="0px" y="0px" width="250px" height="50px"
>
	<g id="Layer%201">
		<path id="Ellipse" d="M 0 25 C 0 11.1927 11.1927 0 25 0 C 38.8073 0 50 11.1927 50 25 C 50 38.8073 38.8073 50 25 50 C 11.1927 50 0 38.8073 0 25 Z" fill="#dddddd"/>
		<path id="Ellipse2" d="M 100 25 C 100 11.1927 111.1927 0 125 0 C 138.8073 0 150 11.1927 150 25 C 150 38.8073 138.8073 50 125 50 C 111.1927 50 100 38.8073 100 25 Z" fill="#5da97b"/>
		<path id="Ellipse3" d="M 200 25 C 200 11.1927 211.1927 0 225 0 C 238.8073 0 250 11.1927 250 25 C 250 38.8073 238.8073 50 225 50 C 211.1927 50 200 38.8073 200 25 Z" fill="#dddddd"/>
		<text x="14" y="47" width="23" fill="#ffffff" style="font-weight: bold; font-family: Roboto; font-size: 32px; color: #ffffff; text-align: left; "><tspan><![CDATA[1]]></tspan></text>
		<text x="114" y="45" width="23" fill="#ffffff" style="font-weight: bold; font-family: Roboto; font-size: 32px; color: #ffffff; text-align: left; "><tspan><![CDATA[2]]></tspan></text>
		<text x="214" y="46" width="23" fill="#ffffff" style="font-weight: bold; font-family: Roboto; font-size: 32px; color: #ffffff; text-align: left; "><tspan><![CDATA[3]]></tspan></text>
		<rect x="50" y="21" width="50" height="8" fill="#dddddd"/>
		<rect x="150" y="21" width="50" height="8" fill="#dddddd"/>
	</g>
</svg>