<?xml version="1.0" standalone="no"?>
<!-- Generator: Adobe Fireworks 10, Export SVG Extension by Aaron Beall (http://fireworks.abeall.com) . Version: 0.6.1  -->
<!DOCTYPE svg PUBLIC "-//W3C//DTD SVG 1.1//EN" "http://www.w3.org/Graphics/SVG/1.1/DTD/svg11.dtd">
<svg id="Untitled-Page%201" viewBox="0 0 43 38" style="background-color:#ffffff00" version="1.1"
	xmlns="http://www.w3.org/2000/svg" xmlns:xlink="http://www.w3.org/1999/xlink" xml:space="preserve"
	x="0px" y="0px" width="43px" height="38px"
>
	<g id="Layer%201">
		<g>
			<path d="M 40.4766 0.3979 L 18.0742 0.3979 L 18.0742 37.1992 L 42.875 37.1992 L 42.875 0.3979 L 40.4766 0.3979 ZM 34.875 2.8013 L 34.875 6.8013 L 26.0742 6.8013 L 26.0742 2.8013 L 34.875 2.8013 ZM 20.4771 2.8013 L 23.6758 2.8013 L 23.6758 9.1992 L 37.2773 9.1992 L 37.2773 2.8013 L 40.4766 2.8013 L 40.4766 17.1992 L 35.543 17.1992 C 34.9922 14.687 32.75 12.8013 30.0742 12.8013 C 27.4023 12.8013 25.1602 14.687 24.6094 17.1992 L 20.4771 17.1992 L 20.4771 2.8013 ZM 27.1133 17.1992 C 27.5898 16.0313 28.7344 15.1992 30.0742 15.1992 C 31.4141 15.1992 32.5625 16.0313 33.0391 17.1992 L 27.1133 17.1992 ZM 33.0391 19.6025 C 32.5625 20.7705 31.4141 21.6025 30.0742 21.6025 C 28.7344 21.6025 27.5898 20.7705 27.1133 19.6025 L 33.0391 19.6025 ZM 26.0742 34.8008 L 26.0742 30.8008 L 34.875 30.8008 L 34.875 34.8008 L 26.0742 34.8008 ZM 40.4766 34.8008 L 37.2773 34.8008 L 37.2773 28.3984 L 23.6758 28.3984 L 23.6758 34.8008 L 20.4771 34.8008 L 20.4771 19.6025 L 24.6094 19.6025 C 25.1602 22.1133 27.4023 24 30.0742 24 C 32.75 24 34.9922 22.1133 35.543 19.6025 L 40.4766 19.6025 L 40.4766 34.8008 ZM 40.4766 34.8008 L 40.4766 34.8008 Z" fill="#ffffff"/>
			<path d="M 4.8008 2.3984 C 4.8008 3.7271 3.7271 4.8013 2.3979 4.8013 C 1.0742 4.8013 0 3.7271 0 2.3984 C 0 1.0742 1.0742 0 2.3979 0 C 3.7271 0 4.8008 1.0742 4.8008 2.3984 L 4.8008 2.3984 ZM 4.8008 2.3984 L 4.8008 2.3984 Z" fill="#ffffff"/>
			<path d="M 6.0742 1.1992 L 12.4761 1.1992 L 12.4761 3.6011 L 6.0742 3.6011 L 6.0742 1.1992 Z" fill="#ffffff"/>
			<path d="M 4.8008 8.8013 C 4.8008 10.125 3.7271 11.1992 2.3979 11.1992 C 1.0742 11.1992 0 10.125 0 8.8013 C 0 7.4731 1.0742 6.3979 2.3979 6.3979 C 3.7271 6.3979 4.8008 7.4731 4.8008 8.8013 L 4.8008 8.8013 ZM 4.8008 8.8013 L 4.8008 8.8013 Z" fill="#ffffff"/>
			<path d="M 6.0742 7.6021 L 12.4761 7.6021 L 12.4761 10 L 6.0742 10 L 6.0742 7.6021 Z" fill="#ffffff"/>
			<path d="M 4.8008 15.1992 C 4.8008 16.5273 3.7271 17.6021 2.3979 17.6021 C 1.0742 17.6021 0 16.5273 0 15.1992 C 0 13.875 1.0742 12.8013 2.3979 12.8013 C 3.7271 12.8013 4.8008 13.875 4.8008 15.1992 L 4.8008 15.1992 ZM 4.8008 15.1992 L 4.8008 15.1992 Z" fill="#ffffff"/>
			<path d="M 6.0742 14 L 12.4761 14 L 12.4761 16.3984 L 6.0742 16.3984 L 6.0742 14 Z" fill="#ffffff"/>
			<path d="M 4.8008 21.6025 C 4.8008 22.9258 3.7271 24 2.3979 24 C 1.0742 24 0 22.9258 0 21.6025 C 0 20.2734 1.0742 19.1992 2.3979 19.1992 C 3.7271 19.1992 4.8008 20.2734 4.8008 21.6025 L 4.8008 21.6025 ZM 4.8008 21.6025 L 4.8008 21.6025 Z" fill="#ffffff"/>
			<path d="M 6.0742 20.3984 L 12.4761 20.3984 L 12.4761 22.7998 L 6.0742 22.7998 L 6.0742 20.3984 Z" fill="#ffffff"/>
			<path d="M 4.8008 28 C 4.8008 29.3242 3.7271 30.3984 2.3979 30.3984 C 1.0742 30.3984 0 29.3242 0 28 C 0 26.6758 1.0742 25.6025 2.3979 25.6025 C 3.7271 25.6025 4.8008 26.6758 4.8008 28 L 4.8008 28 ZM 4.8008 28 L 4.8008 28 Z" fill="#ffffff"/>
			<path d="M 6.0742 26.8008 L 12.4761 26.8008 L 12.4761 29.1992 L 6.0742 29.1992 L 6.0742 26.8008 Z" fill="#ffffff"/>
			<path d="M 4.8008 34.3984 C 4.8008 35.7275 3.7271 36.8008 2.3979 36.8008 C 1.0742 36.8008 0 35.7275 0 34.3984 C 0 33.0742 1.0742 32 2.3979 32 C 3.7271 32 4.8008 33.0742 4.8008 34.3984 L 4.8008 34.3984 ZM 4.8008 34.3984 L 4.8008 34.3984 Z" fill="#ffffff"/>
			<path d="M 6.0742 33.1992 L 12.4761 33.1992 L 12.4761 35.6016 L 6.0742 35.6016 L 6.0742 33.1992 Z" fill="#ffffff"/>
		</g>
	</g>
</svg>