<?xml version="1.0" standalone="no"?>
<!-- Generator: Adobe Fireworks 10, Export SVG Extension by Aaron Beall (http://fireworks.abeall.com) . Version: 0.6.1  -->
<!DOCTYPE svg PUBLIC "-//W3C//DTD SVG 1.1//EN" "http://www.w3.org/Graphics/SVG/1.1/DTD/svg11.dtd">
<svg id="Untitled-Page%201" viewBox="0 0 350 163" style="background-color:#ffffff00" version="1.1"
	xmlns="http://www.w3.org/2000/svg" xmlns:xlink="http://www.w3.org/1999/xlink" xml:space="preserve"
	x="0px" y="0px" width="350px" height="163px"
>
	<g id="Layer%201">
		<g>
			<g>
				<path d="M 60.3495 30.163 L 60.3495 134.8278 L 291 134.8278 L 291 30.163 L 284.0106 30.163 L 284.0106 127.8501 L 67.3389 127.8501 L 67.3389 30.163 L 60.3495 30.163 Z" fill="#b4b4b4"/>
				<path d="M 105.0817 30.163 L 105.0817 85.9841 L 246.2678 85.9841 L 246.2678 30.163 L 239.2784 30.163 L 239.2784 79.0065 L 112.0711 79.0065 L 112.0711 30.163 L 105.0817 30.163 Z" fill="#b4b4b4"/>
				<path id="Ellipse" d="M 169 104 C 169 101.7908 170.7909 100 173 100 C 175.2091 100 177 101.7908 177 104 C 177 106.2091 175.2091 108 173 108 C 170.7909 108 169 106.2091 169 104 Z" fill="#b4b4b4"/>
				<path d="M 223.9017 134.8278 L 233.6869 134.8278 C 233.6869 134.8278 211.3207 163 175.8495 163 C 137.6698 163 117.6626 134.8278 117.6626 134.8278 L 127.4478 134.8278 C 127.4478 134.8278 145.4455 155.9352 175.8495 155.9352 C 204.3314 155.9352 223.9017 134.8278 223.9017 134.8278 Z" fill="#b4b4b4"/>
				<path d="M 208.2106 23.9706 L 208.2106 0 L 141.3412 0 L 141.3412 23.9706 L 146.3116 23.9706 L 146.3116 4.9939 L 203.2402 4.9939 L 203.2402 23.9706 L 208.2106 23.9706 Z" fill="#b4b4b4"/>
				<rect x="0" y="24" width="350" height="6" fill="#b4b4b4"/>
			</g>
		</g>
	</g>
</svg>