<?xml version="1.0" standalone="no"?>
<!-- Generator: Adobe Fireworks 10, Export SVG Extension by Aaron Beall (http://fireworks.abeall.com) . Version: 0.6.1  -->
<!DOCTYPE svg PUBLIC "-//W3C//DTD SVG 1.1//EN" "http://www.w3.org/Graphics/SVG/1.1/DTD/svg11.dtd">
<svg id="Untitled-Page%201" viewBox="0 0 106 121" style="background-color:#ffffff00" version="1.1"
	xmlns="http://www.w3.org/2000/svg" xmlns:xlink="http://www.w3.org/1999/xlink" xml:space="preserve"
	x="0px" y="0px" width="106px" height="121px"
>
	<g id="Layer%201">
		<g>
			<path d="M 8.8228 83.3083 L 93.1822 13.9269 C 76.5821 16.3775 55.7176 4.5148 53.1376 3.001 L 52.8624 3.001 C 49.9626 4.7052 23.9362 19.5052 6.8612 12.313 C 4.8424 11.4647 3.8635 12.1379 4.3617 14.2558 C 6.7381 24.3777 13.6212 52.2253 3 68.8373 C 3 68.8373 4.0593 75.0062 8.8228 83.3083 Z" fill="#b4b4b4"/>
			<path d="M 99.4547 24.6662 L 15.9143 93.3763 C 23.3547 102.1382 34.9384 111.4521 52.8624 118 L 53.1376 118 C 97.371 101.842 103 68.8373 103 68.8373 C 95.1651 57.8517 97.0473 38.0447 99.4547 24.6662 Z" fill="#b4b4b4"/>
			<path d="M 52.8624 3 C 49.9626 4.7043 23.9362 19.5043 6.8612 12.313 C 4.8434 11.4637 3.8645 12.1379 4.3627 14.2549 C 6.7391 24.3777 13.6222 52.2243 3 68.8373 L 3 68.8373 C 3 68.8373 8.629 101.842 52.8624 118 L 53.1396 118 C 97.371 101.842 103 68.8373 103 68.8373 L 103 68.8373 C 92.6453 54.3172 99.2629 24.3796 101.6374 14.2549 C 102.1355 12.136 101.1586 11.4637 99.1388 12.313 C 82.0618 19.5043 56.0374 4.7024 53.1396 3 L 52.8624 3 Z" stroke="#dcdcdc" stroke-width="5" fill="none"/>
			<path d="M 52.8643 3.9858 C 50.013 5.6613 24.4344 20.2073 7.6521 13.1382 C 5.6691 12.3034 4.7058 12.967 5.1962 15.0464 C 7.5319 24.997 14.2968 52.3657 3.8568 68.693 L 3.8568 68.693 C 3.8568 68.693 9.3888 101.1341 52.8643 117.0151 L 53.1376 117.0151 C 96.6112 101.1341 102.1432 68.693 102.1432 68.693 L 102.1432 68.693 C 91.9669 54.422 98.4701 24.999 100.8038 15.0464 C 101.2943 12.9651 100.3328 12.3034 98.3479 13.1382 C 81.5637 20.2073 55.9851 5.6593 53.1376 3.9858 L 52.8643 3.9858 Z" stroke="#ffffff" stroke-width="5" fill="none"/>
		</g>
	</g>
</svg>