<?xml version="1.0" standalone="no"?>
<!-- Generator: Adobe Fireworks 10, Export SVG Extension by Aaron Beall (http://fireworks.abeall.com) . Version: 0.6.1  -->
<!DOCTYPE svg PUBLIC "-//W3C//DTD SVG 1.1//EN" "http://www.w3.org/Graphics/SVG/1.1/DTD/svg11.dtd">
<svg id="Untitled-Page%201" viewBox="0 0 16 15" style="background-color:#ffffff00" version="1.1"
	xmlns="http://www.w3.org/2000/svg" xmlns:xlink="http://www.w3.org/1999/xlink" xml:space="preserve"
	x="0px" y="0px" width="16px" height="15px"
>
	<g id="Layer%201">
		<g>
			<path d="M 8.7233 6.3383 L 10.7345 3.4614 L 8.2875 1.1799 L 4.8712 2.4087 L 4.9848 5.629 L 8.7233 6.3383 ZM 8.7233 6.3383 L 8.7233 6.3383 Z" fill="#ffffff"/>
			<path d="M 7.4215 12.1693 L 9.2612 14.0854 L 12.4745 12.7129 L 12.9996 9.8737 L 9.8095 9.4811 L 7.4215 12.1693 ZM 7.4215 12.1693 L 7.4215 12.1693 Z" fill="#ffffff"/>
			<path d="M 0.9754 10.1847 L 1.0157 10.2346 C 2.1101 13.0236 4.8237 15 7.9998 15 C 12.1418 15 15.5 11.6415 15.5 7.5 C 15.5 3.358 12.1418 0 7.9998 0 C 3.8581 0 0.5 3.358 0.5 7.5 C 0.5 8.4271 0.6691 9.315 0.9774 10.1348 L 0.9754 10.1847 ZM 0.8905 7.5 C 0.8905 6.5529 1.0785 5.6486 1.4169 4.8211 L 3.1903 2.621 L 3.6507 1.8825 C 4.8539 0.9492 6.3632 0.3905 7.9998 0.3905 C 8.0393 0.3905 8.0788 0.3928 8.1182 0.3942 L 8.9111 0.6861 L 10.6604 0.9087 C 11.7801 1.3632 12.7594 2.0932 13.512 3.0162 L 13.221 4.2842 L 14.3698 7.5244 L 15.1035 7.7107 C 14.9911 11.534 11.8497 14.6079 7.9998 14.6079 C 6.0837 14.6079 4.3439 13.8455 3.0631 12.6071 L 4.4436 11.4227 L 3.1269 8.0283 L 1.0656 7.3192 L 1.0182 8.8319 C 0.9359 8.4004 0.8905 7.9553 0.8905 7.5 L 0.8905 7.5 ZM 0.8905 7.5 L 0.8905 7.5 Z" fill="#ffffff"/>
		</g>
	</g>
</svg>